<?xml version="1.0" encoding="UTF-8" standalone="no"?>
<svg
   id="Layer_1"
   data-name="Layer 1"
   viewBox="0 0 1916.5456 223.59001"
   version="1.1"
   sodipodi:docname="nzilbb-uc.svg"
   xml:space="preserve"
   width="1916.5457"
   height="223.59001"
   inkscape:version="1.4 (e7c3feb1, 2024-10-09)"
   xmlns:inkscape="http://www.inkscape.org/namespaces/inkscape"
   xmlns:sodipodi="http://sodipodi.sourceforge.net/DTD/sodipodi-0.dtd"
   xmlns="http://www.w3.org/2000/svg"
   xmlns:svg="http://www.w3.org/2000/svg"><sodipodi:namedview
     id="namedview81"
     pagecolor="#ffffff"
     bordercolor="#000000"
     borderopacity="0.25"
     inkscape:showpageshadow="2"
     inkscape:pageopacity="0.0"
     inkscape:pagecheckerboard="0"
     inkscape:deskcolor="#d1d1d1"
     inkscape:zoom="0.4459724"
     inkscape:cx="1645.8418"
     inkscape:cy="93.055087"
     inkscape:window-width="2312"
     inkscape:window-height="1186"
     inkscape:window-x="1616"
     inkscape:window-y="57"
     inkscape:window-maximized="0"
     inkscape:current-layer="Layer_1" /><defs
     id="defs1"><style
       id="style1">.cls-1,.cls-4{fill:#231f20;}.cls-2,.cls-3{fill:none;}.cls-3{stroke:#ed1c24;stroke-width:0.25px;}.cls-4{stroke:#231f20;stroke-width:0.2px;}</style><clipPath
       id="clipPath16"><path
         d="M 0,53.206 H 301.352 V 0 H 0 Z"
         id="path18-3" /></clipPath><clipPath
       clipPathUnits="userSpaceOnUse"
       id="clipPath2"><path
         d="M 0,0 H 2506 V 859 H 0 Z"
         transform="matrix(0.13333333,0,0,-0.13333333,0,114.49333)"
         id="path2-0" /></clipPath><clipPath
       clipPathUnits="userSpaceOnUse"
       id="clipPath6"><path
         d="M 1140.79,0 H 2506.34 V 858.738 H 1140.79 Z"
         transform="translate(0,-2.5000001e-5)"
         id="path6-5" /></clipPath><clipPath
       clipPathUnits="userSpaceOnUse"
       id="clipPath7"><path
         d="M 1140.79,0 H 2506.34 V 858.738 H 1140.79 Z"
         transform="translate(0,-2.5000001e-5)"
         id="path7-5" /></clipPath><clipPath
       clipPathUnits="userSpaceOnUse"
       id="clipPath8"><path
         d="M 1140.79,0 H 2506.34 V 858.738 H 1140.79 Z"
         transform="translate(0,-2.5000001e-5)"
         id="path8-6" /></clipPath><clipPath
       clipPathUnits="userSpaceOnUse"
       id="clipPath9"><path
         d="M 1140.79,0 H 2506.34 V 858.738 H 1140.79 Z"
         transform="translate(0,-2.5000001e-5)"
         id="path9-3" /></clipPath><clipPath
       clipPathUnits="userSpaceOnUse"
       id="clipPath10"><path
         d="M 1140.79,0 H 2506.34 V 858.738 H 1140.79 Z"
         transform="translate(0,-2.5000001e-5)"
         id="path10-2" /></clipPath><clipPath
       clipPathUnits="userSpaceOnUse"
       id="clipPath11"><path
         d="M 1140.79,0 H 2506.34 V 858.738 H 1140.79 Z"
         transform="translate(0,-2.5000001e-5)"
         id="path11-6" /></clipPath><clipPath
       clipPathUnits="userSpaceOnUse"
       id="clipPath12"><path
         d="M 1140.79,0 H 2506.34 V 858.738 H 1140.79 Z"
         transform="translate(0,-2.5000001e-5)"
         id="path12-8" /></clipPath><clipPath
       clipPathUnits="userSpaceOnUse"
       id="clipPath13"><path
         d="M 1140.79,0 H 2506.34 V 858.738 H 1140.79 Z"
         transform="translate(0,-2.5000001e-5)"
         id="path13-9" /></clipPath><clipPath
       clipPathUnits="userSpaceOnUse"
       id="clipPath14"><path
         d="M 1140.79,0 H 2506.34 V 858.738 H 1140.79 Z"
         transform="translate(0,-2.5000001e-5)"
         id="path14-1" /></clipPath><clipPath
       clipPathUnits="userSpaceOnUse"
       id="clipPath15"><path
         d="M 1140.79,0 H 2506.34 V 858.738 H 1140.79 Z"
         transform="translate(0,-2.5000001e-5)"
         id="path15-4" /></clipPath><clipPath
       clipPathUnits="userSpaceOnUse"
       id="clipPath16-8"><path
         d="M 1140.79,0 H 2506.34 V 858.738 H 1140.79 Z"
         transform="translate(0,-2.5000001e-5)"
         id="path16-8" /></clipPath><clipPath
       clipPathUnits="userSpaceOnUse"
       id="clipPath17"><path
         d="M 1140.79,0 H 2506.34 V 858.738 H 1140.79 Z"
         transform="translate(0,-2.5000001e-5)"
         id="path17-7" /></clipPath><clipPath
       clipPathUnits="userSpaceOnUse"
       id="clipPath18"><path
         d="M 1140.79,0 H 2506.34 V 858.738 H 1140.79 Z"
         transform="translate(0,-2.5000001e-5)"
         id="path18-1" /></clipPath><clipPath
       clipPathUnits="userSpaceOnUse"
       id="clipPath19"><path
         d="M 1140.79,0 H 2506.34 V 858.738 H 1140.79 Z"
         transform="translate(0,-2.5000001e-5)"
         id="path19-9" /></clipPath><clipPath
       clipPathUnits="userSpaceOnUse"
       id="clipPath20"><path
         d="M 1140.79,0 H 2506.34 V 858.738 H 1140.79 Z"
         transform="translate(0,-2.5000001e-5)"
         id="path20-3" /></clipPath><clipPath
       clipPathUnits="userSpaceOnUse"
       id="clipPath21"><path
         d="M 1140.79,0 H 2506.34 V 858.738 H 1140.79 Z"
         transform="translate(0,-2.5000001e-5)"
         id="path21-1" /></clipPath><clipPath
       clipPathUnits="userSpaceOnUse"
       id="clipPath22"><path
         d="M 1140.79,0 H 2506.34 V 858.738 H 1140.79 Z"
         transform="translate(0,-2.5000001e-5)"
         id="path22-1" /></clipPath><clipPath
       clipPathUnits="userSpaceOnUse"
       id="clipPath23"><path
         d="M 1140.79,0 H 2506.34 V 858.738 H 1140.79 Z"
         transform="translate(0,-2.5000001e-5)"
         id="path23-4" /></clipPath><clipPath
       clipPathUnits="userSpaceOnUse"
       id="clipPath24"><path
         d="M 1140.79,0 H 2506.34 V 858.738 H 1140.79 Z"
         transform="translate(0,-2.5000001e-5)"
         id="path24-9" /></clipPath><clipPath
       clipPathUnits="userSpaceOnUse"
       id="clipPath25"><path
         d="M 1140.79,0 H 2506.34 V 858.738 H 1140.79 Z"
         transform="translate(0,-2.5000001e-5)"
         id="path25-5" /></clipPath><clipPath
       clipPathUnits="userSpaceOnUse"
       id="clipPath26"><path
         d="M 1140.79,0 H 2506.34 V 858.738 H 1140.79 Z"
         transform="translate(0,-2.5000001e-5)"
         id="path26-9" /></clipPath><clipPath
       clipPathUnits="userSpaceOnUse"
       id="clipPath27"><path
         d="M 1140.79,0 H 2506.34 V 858.738 H 1140.79 Z"
         transform="translate(0,-2.5000001e-5)"
         id="path27-0" /></clipPath><clipPath
       clipPathUnits="userSpaceOnUse"
       id="clipPath28"><path
         d="M 1140.79,0 H 2506.34 V 858.738 H 1140.79 Z"
         transform="translate(0,-2.5000001e-5)"
         id="path28-9" /></clipPath><clipPath
       clipPathUnits="userSpaceOnUse"
       id="clipPath29"><path
         d="M 1140.79,0 H 2506.34 V 858.738 H 1140.79 Z"
         transform="translate(0,-2.5000001e-5)"
         id="path29-3" /></clipPath><clipPath
       clipPathUnits="userSpaceOnUse"
       id="clipPath58"><path
         d="M 0,145.305 H 1115.78 V 740.398 H 0 Z"
         transform="translate(0,-2.5000001e-5)"
         id="path58-4" /></clipPath><clipPath
       clipPathUnits="userSpaceOnUse"
       id="clipPath60"><path
         d="M 0,145.305 H 1115.78 V 740.398 H 0 Z"
         transform="translate(0,-2.5000001e-5)"
         id="path60-0" /></clipPath><clipPath
       clipPathUnits="userSpaceOnUse"
       id="clipPath62"><path
         d="M 0,145.305 H 1115.78 V 740.398 H 0 Z"
         transform="translate(0,-2.5000001e-5)"
         id="path62-7" /></clipPath><clipPath
       clipPathUnits="userSpaceOnUse"
       id="clipPath64"><path
         d="M 0,145.305 H 1115.78 V 740.398 H 0 Z"
         transform="translate(0,-2.5000001e-5)"
         id="path64-5" /></clipPath><clipPath
       clipPathUnits="userSpaceOnUse"
       id="clipPath66"><path
         d="M 0,145.305 H 1115.78 V 740.398 H 0 Z"
         transform="translate(0,-2.5000001e-5)"
         id="path66-7" /></clipPath><clipPath
       clipPathUnits="userSpaceOnUse"
       id="clipPath68"><path
         d="M 0,145.305 H 1115.78 V 740.398 H 0 Z"
         transform="translate(0,-2.5000001e-5)"
         id="path68-5" /></clipPath><clipPath
       clipPathUnits="userSpaceOnUse"
       id="clipPath70"><path
         d="M 0,145.305 H 1115.78 V 740.398 H 0 Z"
         transform="translate(0,-2.5000001e-5)"
         id="path70-0" /></clipPath><clipPath
       clipPathUnits="userSpaceOnUse"
       id="clipPath72"><path
         d="M 0,145.305 H 1115.78 V 740.398 H 0 Z"
         transform="translate(0,-2.5000001e-5)"
         id="path72-6" /></clipPath><clipPath
       clipPathUnits="userSpaceOnUse"
       id="clipPath74"><path
         d="M 0,145.305 H 1115.78 V 740.398 H 0 Z"
         transform="translate(0,-2.5000001e-5)"
         id="path74-4" /></clipPath><clipPath
       clipPathUnits="userSpaceOnUse"
       id="clipPath76"><path
         d="M 0,145.305 H 1115.78 V 740.398 H 0 Z"
         transform="translate(0,-2.5000001e-5)"
         id="path76-7" /></clipPath><clipPath
       clipPathUnits="userSpaceOnUse"
       id="clipPath78"><path
         d="M 0,145.305 H 1115.78 V 740.398 H 0 Z"
         transform="translate(0,-2.5000001e-5)"
         id="path78-8" /></clipPath><clipPath
       clipPathUnits="userSpaceOnUse"
       id="clipPath80"><path
         d="M 0,145.305 H 1115.78 V 740.398 H 0 Z"
         transform="translate(0,-2.5000001e-5)"
         id="path80-4" /></clipPath><clipPath
       clipPathUnits="userSpaceOnUse"
       id="clipPath82"><path
         d="M 0,145.305 H 1115.78 V 740.398 H 0 Z"
         transform="translate(0,-2.5000001e-5)"
         id="path82-0" /></clipPath><clipPath
       clipPathUnits="userSpaceOnUse"
       id="clipPath84"><path
         d="M 0,145.305 H 1115.78 V 740.398 H 0 Z"
         transform="translate(0,-2.5000001e-5)"
         id="path84" /></clipPath><clipPath
       clipPathUnits="userSpaceOnUse"
       id="clipPath86"><path
         d="M 0,145.305 H 1115.78 V 740.398 H 0 Z"
         transform="translate(0,-2.5000001e-5)"
         id="path86-0" /></clipPath><clipPath
       clipPathUnits="userSpaceOnUse"
       id="clipPath88"><path
         d="M 0,145.305 H 1115.78 V 740.398 H 0 Z"
         transform="translate(0,-2.5000001e-5)"
         id="path88" /></clipPath><clipPath
       clipPathUnits="userSpaceOnUse"
       id="clipPath90"><path
         d="M 0,145.305 H 1115.78 V 740.398 H 0 Z"
         transform="translate(0,-2.5000001e-5)"
         id="path90-6" /></clipPath><clipPath
       clipPathUnits="userSpaceOnUse"
       id="clipPath92"><path
         d="M 0,145.305 H 1115.78 V 740.398 H 0 Z"
         transform="translate(0,-2.5000001e-5)"
         id="path92" /></clipPath><clipPath
       clipPathUnits="userSpaceOnUse"
       id="clipPath94"><path
         d="M 0,145.305 H 1115.78 V 740.398 H 0 Z"
         transform="translate(0,-2.5000001e-5)"
         id="path94-2" /></clipPath><clipPath
       clipPathUnits="userSpaceOnUse"
       id="clipPath96"><path
         d="M 0,145.305 H 1115.78 V 740.398 H 0 Z"
         transform="translate(0,-2.5000001e-5)"
         id="path96" /></clipPath><clipPath
       clipPathUnits="userSpaceOnUse"
       id="clipPath98"><path
         d="M 0,145.305 H 1115.78 V 740.398 H 0 Z"
         transform="translate(0,-2.5000001e-5)"
         id="path98-4" /></clipPath><clipPath
       clipPathUnits="userSpaceOnUse"
       id="clipPath100"><path
         d="M 0,145.305 H 1115.78 V 740.398 H 0 Z"
         transform="translate(0,-2.5000001e-5)"
         id="path100" /></clipPath><clipPath
       clipPathUnits="userSpaceOnUse"
       id="clipPath102"><path
         d="M 0,145.305 H 1115.78 V 740.398 H 0 Z"
         transform="translate(0,-2.5000001e-5)"
         id="path102-7" /></clipPath><clipPath
       clipPathUnits="userSpaceOnUse"
       id="clipPath104"><path
         d="M 0,145.305 H 1115.78 V 740.398 H 0 Z"
         transform="translate(0,-2.5000001e-5)"
         id="path104" /></clipPath><clipPath
       clipPathUnits="userSpaceOnUse"
       id="clipPath106"><path
         d="M 0,145.305 H 1115.78 V 740.398 H 0 Z"
         transform="translate(0,-2.5000001e-5)"
         id="path106-4" /></clipPath><clipPath
       clipPathUnits="userSpaceOnUse"
       id="clipPath108"><path
         d="M 0,145.305 H 1115.78 V 740.398 H 0 Z"
         transform="translate(0,-2.5000001e-5)"
         id="path108" /></clipPath><clipPath
       clipPathUnits="userSpaceOnUse"
       id="clipPath110"><path
         d="M 0,145.305 H 1115.78 V 740.398 H 0 Z"
         transform="translate(0,-2.5000001e-5)"
         id="path110-1" /></clipPath><clipPath
       clipPathUnits="userSpaceOnUse"
       id="clipPath112"><path
         d="M 0,145.305 H 1115.78 V 740.398 H 0 Z"
         transform="translate(0,-2.5000001e-5)"
         id="path112" /></clipPath><clipPath
       clipPathUnits="userSpaceOnUse"
       id="clipPath114"><path
         d="M 0,145.305 H 1115.78 V 740.398 H 0 Z"
         transform="translate(0,-2.5000001e-5)"
         id="path114-8" /></clipPath><clipPath
       clipPathUnits="userSpaceOnUse"
       id="clipPath116"><path
         d="M 0,145.305 H 1115.78 V 740.398 H 0 Z"
         transform="translate(0,-2.5000001e-5)"
         id="path116" /></clipPath><clipPath
       clipPathUnits="userSpaceOnUse"
       id="clipPath118"><path
         d="M 0,145.305 H 1115.78 V 740.398 H 0 Z"
         transform="translate(0,-2.5000001e-5)"
         id="path118-5" /></clipPath><clipPath
       clipPathUnits="userSpaceOnUse"
       id="clipPath120"><path
         d="M 0,145.305 H 1115.78 V 740.398 H 0 Z"
         transform="translate(0,-2.5000001e-5)"
         id="path120" /></clipPath><clipPath
       clipPathUnits="userSpaceOnUse"
       id="clipPath122"><path
         d="M 0,145.305 H 1115.78 V 740.398 H 0 Z"
         transform="translate(0,-2.5000001e-5)"
         id="path122-8" /></clipPath><clipPath
       clipPathUnits="userSpaceOnUse"
       id="clipPath124"><path
         d="M 0,145.305 H 1115.78 V 740.398 H 0 Z"
         transform="translate(0,-2.5000001e-5)"
         id="path124" /></clipPath></defs><path
     class="cls-1"
     d="m 1731.7082,5.83 c -8.83,0.1400005 -11.14,3.3999995 -11.27,11 l -0.55,43.61 c -0.27,19.83 -8.55,39.8 -38.44,39.8 -25.13,0 -44.28,-10.87 -44.28,-39.930001 v -43.48 c 0,-7.5999995 -2.45,-10.8599985 -11.28,-10.999999 V 1.75 c 10.87,0.41 15.48,0.41 19.83,0.41 4.35,0 9,0 19.84,-0.41 v 4.08 c -8.83,0.1400005 -11.28,3.3999995 -11.28,10.999999 v 46.87 c 0,20.38 12.91,31.38 28.12,31.38 23.64,0 32.06,-15.22 32.06,-38.85 0,-7.61 -0.14,-13 -0.27,-19 l -0.41,-19.7 C 1713.6382,9.3799995 1711.8782,5.85 1701.9582,5.85 V 1.77 c 5,0.14 10.46,0.41 14.67,0.41 4.21,0 9.79,-0.27 15.08,-0.41 z"
     id="path1" /><path
     class="cls-1"
     d="m 1825.7182,31.92 h -3.54 c -3,-19.56 -19.56,-26.76 -35.86,-26.76 -18.07,0 -35.59,14.26 -35.59,40.62 0,25.54 14.67,48.77 38.17,48.77 10.19,0 26.09,-6 37.77,-24.46 l 0.06,16 c -11.31,9.53 -27.64,14.12 -42.17,14.12 -47,0 -53.94,-36.400001 -53.94,-51.21 0,-22 15.63,-49 57.88,-49 8.55,0 24.31,2.44 37.22,7.6100005 z"
     id="path2" /><path
     class="cls-2"
     d="M 1865.1182,20.83 Z"
     id="path3" /><path
     class="cls-1"
     d="m 1897.8982,11.26 v -0.07 c -0.14,-0.42 -0.67,-2.6100005 2.7,-3.0699995 a 7.29,7.29 0 0 1 1.68,-2.17 10.27,10.27 0 0 1 1.6,2.33 3.42,3.42 0 0 1 2.79,3.0699995 c 0,0 -1.7,-1 -2.1,0.27 l 0.18,4.29 h 4.07 a 1.76,1.76 0 0 0 0.55,-1.9 c 0,0 2.67,-1.23 2.82,2.77 a 8.8,8.8 0 0 1 2.35,1.38 4.8,4.8 0 0 1 -2.5,1.75 c 0,0 -0.32,2.87 -2.82,2.71 0,0 0.85,-1.56 -0.37,-2.06 h -4.28 v 4.25 a 1.3,1.3 0 0 0 1.76,0.56 c 0,0 1.3,2.79 -2.39,2.79 a 7.85,7.85 0 0 1 -1.66,2.46 6.62,6.62 0 0 1 -1.69,-2.59 c 0,0 -2.67,-0.22 -2.71,-2.7 0,0 1.44,0.54 2.09,-0.49 l -0.19,-4.25 h -4.09 a 1.35,1.35 0 0 0 -0.42,2 c 0,0 -2.77,0.91 -3,-2.65 a 7.61,7.61 0 0 1 -2.33,-1.67 7.48,7.48 0 0 1 2.49,-1.65 c 0,0 0.37,-2.81 2.87,-2.78 0,0 -0.9,1.69 0.35,2.09 h 4.31 v -4.28 a 1.34,1.34 0 0 0 -2.06,-0.39 z m 3,-0.18 v 5.83 h -5.83 a 1.81,1.81 0 0 1 -1.09,-1.6 2.86,2.86 0 0 0 -0.85,2.18 2.78,2.78 0 0 0 -2,0.76 3,3 0 0 0 1.89,0.78 c 0.09,2.62 1,2.53 1,2.53 -0.32,-1.15 1,-2 1,-2 h 5.79 v 5.73 a 2.47,2.47 0 0 1 -1.68,1.11 c 0.28,0.71 2.15,1 2.15,1 a 2.37,2.37 0 0 0 1,2 c 0.52,-0.34 0.7,-2.07 0.7,-2.07 2.06,0.45 2.51,-0.88 2.51,-0.88 a 2.32,2.32 0 0 1 -2,-1.16 v -5.66 h 5.73 c 0.92,0.25 1.17,1.74 1.17,1.74 a 4.18,4.18 0 0 0 0.88,-2.43 2.53,2.53 0 0 0 1.84,-0.67 2.55,2.55 0 0 0 -1.87,-0.88 c 0.23,-2.11 -0.82,-2.61 -0.82,-2.61 a 3.05,3.05 0 0 1 -1,2.13 h -5.92 v -5.9 a 2.61,2.61 0 0 1 1.82,-1 4,4 0 0 0 -2.36,-0.8000005 2.82,2.82 0 0 0 -0.71,-1.889999 3.45,3.45 0 0 0 -0.87,1.909999 c -1.91,-0.41 -2.47,0.72 -2.47,0.72 a 2.24,2.24 0 0 1 1.96,1.1300005 z"
     id="path4" /><path
     class="cls-1"
     d="m 1835.7482,11.27 4.51,-4.5099995 6.79,6.7899995 6.81,-6.7899995 4.72,4.7199995 -8.42,8 v 11 h -6.4 v -11 z m 8.88,7.77 v 10.37 h 4.63 V 18.97 l 7.61,-7.53 -3.11,-3.2799995 -6.76,6.7499995 -6.86,-6.8699995 -3.08,3.1899995 z"
     id="path5" /><path
     class="cls-1"
     d="m 1846.0882,15.55 h 1.75 l -0.39,1.55 1.17,-0.58 v 1.94 l -1,-0.39 v 2.92 a 2.7,2.7 0 0 1 -0.58,1 c -0.19,0 -0.39,-0.39 -0.58,-1 v -2.92 l -1.17,0.39 v -1.94 l 1.17,0.58 -0.39,-1.55 z"
     id="path6" /><path
     class="cls-1"
     d="m 1845.8982,22.73 h 1.94 l -0.39,1.36 1.17,-0.39 v 1.75 l -1.17,-0.39 v 3.11 c -0.19,0.59 -0.39,0.78 -0.58,0.78 a 1.34,1.34 0 0 1 -0.59,-0.78 v -3.11 l -1,0.39 V 23.7 l 1.17,0.39 -0.58,-1.36 z"
     id="path7" /><path
     class="cls-1"
     d="m 1838.8982,11.47 1.36,-1.36 0.78,1.16 0.39,-1.16 1.36,1.36 -1.17,0.39 2.33,2.33 a 0.68,0.68 0 1 1 -0.77,0.77 l -2.34,-2.13 -0.38,1 -1.36,-1.36 1.16,-0.39 -1.36,-0.58 z"
     id="path8" /><path
     class="cls-1"
     d="m 1853.6682,9.9099995 1.36,1.3600005 -1.17,0.78 1.17,0.39 -1.36,1.39 -0.59,-1 -2.13,2.33 a 4.26,4.26 0 0 1 -1.17,0.19 3.29,3.29 0 0 1 0.2,-1 l 2.33,-2.33 -1,-0.58 1.16,-1.36 0.58,1.16 0.59,-1.3600005 z"
     id="path9" /><path
     class="cls-1"
     d="m 1851.9482,71.05 c 0.58,0.09 2.71,0.73 2.71,0.73 0.17,-0.26 1.71,-1.83 1.71,-1.83 -0.36,-0.2 -2.44,-0.92 -2.44,-0.92 -0.23,0.2 -1.98,2.02 -1.98,2.02 z"
     id="path10" /><polygon
     class="cls-1"
     points="272.84,74.04 273.64,73.24 272.84,72.43 272.04,73.24 "
     id="polygon10"
     transform="translate(1625.8882)" /><polygon
     class="cls-1"
     points="265.82,69.35 266.63,68.56 267.43,69.35 266.63,70.15 "
     id="polygon11"
     transform="translate(1625.8882)" /><path
     class="cls-1"
     d="m 1897.2182,71.31 -1.65,1.61 -1.61,-1.62 1.66,-1.66 z m -1.63,-0.31 -0.29,0.27 0.29,0.29 0.32,-0.27 z"
     id="path11" /><path
     class="cls-1"
     d="m 1862.1882,58.33 a 0.29,0.29 0 0 1 -0.13,-0.26 0.37,0.37 0 0 1 0,0.09 1,1 0 0 0 0.22,1.05 l 0.34,-0.35 v 0 l 0.34,-0.34 v 0 c 0,0 0,0 0,0 a 0.69,0.69 0 0 1 0,-0.13 0.71,0.71 0 0 0 -0.35,-1 l -0.21,0.43 v 0 z"
     id="path12" /><path
     class="cls-1"
     d="m 1916.2082,36.33 c 0.19,58.079999 -41.18,66.43 -41.18,66.43 0,0 -41.18,-8.74 -41.18,-66.43 V 2.92 h 82.36 z m -80.61,-31.76 v 30.4 c 0,0 2.74,2.22 5,2.14 0,0 1.75,0.58 4.6,-2.41 0,0 2.53,-2.95 5.35,-2.93 0,0 1.66,-0.5 5.68,2.42 0,0 2.79,3 6.18,3 0,0 2.95,0.2 6.23,-2.88 0,0 2.78,-2.55 6,-2.62 0,0 2.41,-0.45 6.21,2.7 0,0 2.83,2.81 6.23,2.8 a 8.33,8.33 0 0 0 6,-3.24 c 0,0 2.77,-2.77 5.69,-2.7 a 8.32,8.32 0 0 1 5.63,2.7 c 0,0 3.21,3.44 5.69,3.14 0,0 2.93,0 4.32,-2.14 V 4.65 Z m 38.9,32.76 h -0.85 v 8.5 h 0.85 z m 1.83,0 h -0.85 v 8.5 h 0.89 z m 0.88,-0.79 a 2.47,2.47 0 0 0 0.26,-1.09 2.44,2.44 0 0 0 -4.87,0 2.48,2.48 0 0 0 0.25,1.08 h 1.65 a 1.2,1.2 0 1 1 1.74,-1.08 1.19,1.19 0 0 1 -0.68,1.08 z m -11.21,39.51 v 3.299999 h 19.64 c 0,0 1.64,7.240001 6,7.81 V 84.02 c 0,0 -1.23,0.299999 -2.11,-1.950001 l -1.16,-3.329999 c 0,0 4.9,-1.700001 7.41,-4.360001 l -2.88,-1.65 a 21.76,21.76 0 0 1 -5.38,2.890001 l -1.15,-3.66 -2.9,0.62 1.11,3.459999 z m 3.3,4.1 v 1.12 h 6.6 v -1.140001 z m -3.12,-0.09 v 6.69 h 15 c 0,0 0.8,-0.05 0.77,-0.760001 0,0 0.13,-0.53 -0.63,-1.28 l -4.4,-4.679999 v 2.239999 h -8.55 v -2.19 z m -2.33,7.69 v 1.079999 h 23.17 l -8.06,-8.78 h -0.59 l 4,4.33 a 2.41,2.41 0 0 1 0.43,2.31 c 0,0 -0.31,0.95 -1.82,1.05 z m 34.64,-12.69 c 2.36,1 3.05,-0.230001 3.05,-0.230001 0.91,-1.66 -1.1,-2.91 -1.1,-2.91 l -7.74,-4.45 c -2.17,-0.61 -2.73,0.7 -2.73,0.7 a 2.09,2.09 0 0 0 0.8,2.63 z m -33.3,3.44 v -2.560001 a 87,87 0 0 0 -8.38,-3.51 c 0,0 1.15,-1.38 1.54,-1.77 a 49.74,49.74 0 0 1 8.32,4.67 h 3.24 a 49.94,49.94 0 0 0 -22.88,-10.13 c 0,0 -0.86,-0.22 -1.16,0.890001 a 1.06,1.06 0 0 0 0.77,1.22 31.8,31.8 0 0 1 5,1.129999 l -2.16,2.21 c 0,0 -3.17,-0.6 -4.85,-0.8 a 1.14,1.14 0 0 0 -1.17,1.1 c 0,0 -0.13,0.95 0.64,1.22 0.04,0 11.33,0.53 21.09,6.330001 z m -3,-25.710001 a 2.33,2.33 0 0 1 2.48,-0.29 1.32,1.32 0 0 1 1.18,0.29 2.23,2.23 0 0 1 0.53,-2 1.18,1.18 0 0 0 0.89,1.53 c -1.3,0.84 0,1.48 0,1.48 -1.41,0.85 -0.11,1.5 -0.11,1.5 -1,0.88 0.23,1 0.23,1 -0.38,2 1,2.53 1,2.53 a 0.74,0.74 0 0 1 -0.49,0 19.3,19.3 0 0 1 0,6.43 1.09,1.09 0 0 1 0,0.9 c 0.29,0.81 -0.62,0.840001 -0.62,0.840001 a 5,5 0 0 1 -0.73,1.31 l 0.34,0.449999 0.78,-1 0.2,0.19 -0.59,1.170001 1,-0.200001 a 1.55,1.55 0 0 0 1,-1.359999 c -0.53,-1.610001 0.39,-2.13 0.39,-2.13 -0.71,-2.24 0.3,-7.000001 0.3,-7.000001 1.48,-0.159999 0.7,-1.899999 0.7,-1.899999 1.06,-0.57 0.25,-1.75 0.25,-1.75 0.89,-0.490001 0.24,-1.75 0.24,-1.75 0.9,-0.61 0.37,-2.07 0.37,-2.07 1,-0.41 0.28,-1.670001 0.28,-1.670001 0.82,-0.53 0,-1.95 0,-1.95 0.73,0.24 1,-1 1,-1 v -9.5 a 2.27,2.27 0 0 0 -1.68,1 1.83,1.83 0 0 0 -1.76,1.29 1.92,1.92 0 0 0 -1.83,1.54 c -1.42,0 -1.42,1.75 -1.42,1.75 a 1.27,1.27 0 0 0 -1,1.47 1.89,1.89 0 0 0 -0.94,1.5 c -0.93,0.41 -0.93,1.71 -0.93,1.71 -1.14,0.32 -0.74,1.58 -0.74,1.58 -0.85,0.37 -0.52,1.67 -0.52,1.67 a 2.3,2.3 0 0 0 -0.82,1.71 9.4,9.4 0 0 1 1.05,0.77 z m -1.22,2 c 0.89,1.7 2,1.63 2,1.63 a 2.31,2.31 0 0 0 2.2,-0.86 1.77,1.77 0 0 0 0.16,-1.95 c -0.33,-0.61 -0.73,0.12 -0.73,0.12 -0.53,1.59 -1.18,1.51 -1.18,1.51 -0.9,0.36 -1.55,-1.19 -1.55,-1.19 a 2.55,2.55 0 0 0 -2.4,-1.46 6.07,6.07 0 0 1 1.53,2.15 z m 0.12,3 a 2.11,2.11 0 0 1 -0.3,0.81 3.34,3.34 0 0 1 1.72,1.91 c 0.94,1.950001 1.79,1.340001 1.79,1.340001 l -0.39,-0.61 a 0.57,0.57 0 0 1 0,-0.77 c 0.36,-0.28 0.77,0.12 0.77,0.12 -0.81,-1.83 0.56,-2.23 0.56,-2.23 a 3.09,3.09 0 0 0 -0.32,-1.75 3.39,3.39 0 0 1 -2.69,0.32 3,3 0 0 1 -1.11,0.9 z m 1.42,-4.27 0.4,0.73 c 0,0 0.21,0.45 0.62,0 a 3.16,3.16 0 0 0 0.57,-1.14 c 0,0 -0.5,-0.28 -1.56,0.41 z m -3.25,0.33 a 2.55,2.55 0 0 0 -1.83,-0.65 12.85,12.85 0 0 1 1.31,1.72 c 0,0 0.31,-0.92 0.55,-1.09 z m 6.47,5 a 2.23,2.23 0 0 1 -0.41,0.29 0.64,0.64 0 0 0 0,0.89 c 0,0 0.85,1.38 0.12,2 a 9.5,9.5 0 0 1 0,4.36 6,6 0 0 0 -0.49,1.83 l 0.45,-0.82 h 0.28 l -0.19,1 0.6,-0.14 a 4.6,4.6 0 0 0 0.53,-1.51 c 0,0 -0.14,-0.85 0.42,-1 a 1,1 0 0 1 0,-1 c 0,0 0.77,-1.83 -0.08,-6 a 1.15,1.15 0 0 1 -1.2,0.08 z m 0,-2.11 c 0,0 0.16,0.85 0.16,1.1 l 0.2,0.24 h 0.33 v -0.93 z m 15.83,12.27 1.56,-1 0.11,0.21 a 7,7 0 0 0 -1.24,1.09 c 0,0 0.26,0.2 1.91,-0.33 a 1.68,1.68 0 0 0 0.86,-0.61 c 0,0 0.32,-0.22 0,-0.71 a 1.34,1.34 0 0 1 -0.26,-0.81 0.64,0.64 0 0 0 0.65,-0.17 c 0,0 0.12,0 0.29,-0.36 a 1.09,1.09 0 0 1 0.41,-1 c 0,0 -0.29,-6.51 0.13,-7 0,0 0.26,-1.34 -0.81,-1.58 0,0 1.24,-1.15 0.17,-1.62 0,0 1.29,-1.21 -0.19,-1.7 0,0 1.58,-1.11 0.52,-2.06 a 1.39,1.39 0 0 0 -0.15,-1.87 c 0,0 0.38,-1.64 -0.64,-1.81 0,0 0.83,-1.15 -0.15,-1.44 0,0 0.57,-1.58 -0.56,-2.07 0,0 1.24,0.07 1.51,1.71 0,0 0.85,0.41 0.25,1.48 a 1.77,1.77 0 0 1 0.51,1.9 1.92,1.92 0 0 1 0.22,2 c 0,0 0.87,1.36 -0.37,2.07 a 1.27,1.27 0 0 1 0.12,1.63 1.11,1.11 0 0 1 -0.12,1.57 1.7,1.7 0 0 1 0,1.54 c 0,0 1.27,1.05 2.24,0.23 a 1.86,1.86 0 0 0 0.34,-1.81 c 0,0 0.61,-0.58 0.27,-1.12 a 0.81,0.81 0 0 0 -0.15,-1 1.53,1.53 0 0 0 -0.24,-1.87 2.21,2.21 0 0 0 -0.39,-1.85 1.63,1.63 0 0 0 -0.56,-1.63 c 0,0 0.34,-1.37 -0.49,-1.95 a 1.91,1.91 0 0 0 -0.73,-1.61 2,2 0 0 0 -1.14,-1.85 1.77,1.77 0 0 0 -1.27,-1.51 1.6,1.6 0 0 0 -1.31,-1.21 1.08,1.08 0 0 0 -0.83,-1.12 c 0,0 -0.14,-1.15 -1.8,-1.05 a 1.54,1.54 0 0 0 -1.32,-1 1.48,1.48 0 0 0 -1.26,-0.48 l -0.43,-0.3 v 9.4 c 0,0 0,0.29 -0.2,0.32 0,0 -0.08,1.39 0.82,1.75 a 1.38,1.38 0 0 0 0.32,1.61 c 0,0 -0.27,1.36 0.51,1.85 0,0 -0.39,1.12 0.32,1.56 a 1.85,1.85 0 0 0 0.51,1.87 c 0,0 0,1.12 0.95,1.27 0,0 0.61,1.26 1.63,1 0,0 1.15,0.78 0.27,7.57 a 1.15,1.15 0 0 0 -0.61,1.37 c 0,0 -0.6,0.360001 -0.93,1.88 h 0.19 l 1.42,-1.239999 a 1.08,1.08 0 0 1 0.3,-1.420001 5.08,5.08 0 0 1 0.46,-1.389999 17.7,17.7 0 0 0 0.05,-6.100001 1.54,1.54 0 0 1 -0.28,-0.72 1.76,1.76 0 0 1 -1,-0.8 1.5,1.5 0 0 1 -1.34,-1.36 c -0.75,-0.35 -0.68,-1.369999 -0.68,-1.369999 -1,-0.560001 -0.43,-1.87 -0.43,-1.87 -0.81,-0.44 -0.59,-1.93 -0.59,-1.93 -0.8,-0.51 -0.37,-1.6 -0.37,-1.6 -0.63,-0.29 -0.38,-1.37 -0.38,-1.37 -0.83,-0.87 -0.13,-2.29 -0.13,-2.29 a 2.12,2.12 0 0 0 1,2.09 c -0.45,0.73 0.32,1.42 0.32,1.42 -0.51,0.92 0.52,1.54 0.52,1.54 a 1.83,1.83 0 0 0 0.43,2 c -0.55,1.24 0.48,1.57 0.48,1.57 -0.4,0.91 0.69,1.39 0.69,1.39 -0.33,1.13 1.13,1.16 1.13,1.16 -0.25,0.659999 1,1.38 1,1.38 a 1.21,1.21 0 0 1 -0.35,0.09 1.55,1.55 0 0 0 0.95,0.5 35.82,35.82 0 0 1 0,6.339999 c 0,0 -0.24,1 -0.32,1.180001 a 0.85,0.85 0 0 0 0,0.44 0.88,0.88 0 0 1 -0.68,0.439999 1.12,1.12 0 0 0 -0.47,0.770001 z m -22,-14.21 0.3,0.3 c 0.27,0.65 -0.55,0.71 -0.55,0.71 -0.4,0.08 -0.37,0.54 0.06,0.62 h 0.05 a 0.55,0.55 0 0 1 0.46,0.35 c 0.15,0.34 -0.27,0.69 -0.27,0.69 a 0.55,0.55 0 0 0 0.11,0.68 c 0.18,0.14 0.41,-0.16 0.41,-0.16 0,0 0,-0.6 0,-0.6 0,-0.6 0.66,-0.53 0.66,-0.53 a 1.23,1.23 0 0 0 0.81,-0.18 3.76,3.76 0 0 1 -1.11,-1.16 l -0.6,-1.12 z"
     id="path13" /><path
     class="cls-3"
     d="M 1893.9482,15.31"
     id="path14" /><path
     class="cls-1"
     d="m 1865.2182,10.37 a 6.89,6.89 0 0 0 3.88,-0.8400005 c 0,0 3.1,-1.849999 5.69,0 a 6.64,6.64 0 0 1 6.25,-0.06 c 0,0 2.69,1.3700005 4.54,1.0000005 v 0.25 l 2.08,0.18 v 1.69 h 1.16 v 3.12 h -1.18 v 0.76 h 1.18 v 3.13 h -1.18 v 1.37 h 1.18 v 3 h -1.18 v 1.25 h 1.18 v 3.09 h -1.18 v 1 h -11.1 a 3.87,3.87 0 0 1 -3.28,0 h -10.47 V 28 l -1.19,-0.09 0.5,0.31 -1,1 -1.73,-1.5 -0.84,-0.06 c 0,0 -0.72,-0.41 0,-0.94 l 0.81,-0.1 1.69,-1.49 1.16,1 -0.6,0.07 v 0.34 l 1.16,-0.16 V 23.6 l -1.25,-0.12 0.53,0.37 -1,1.07 -1.66,-1.67 h -0.75 c 0,0 -0.84,-0.5 0,-1 l 0.78,-0.06 1.66,-1.53 1.12,1 -0.59,0.31 1.22,-0.06 v -2.85 l -1.44,-0.23 0.66,0.38 -1,1 -1.66,-1.38 -0.81,-0.06 c 0,0 -0.78,-0.41 0,-1 h 0.78 l 1.69,-1.59 1.09,1 -0.78,0.37 1.44,-0.12 v -2.76 l -1.25,-0.09 0.62,0.25 -1.12,1.12 -1.47,-1.43 h -0.84 c 0,0 -1,-0.33 0,-1 l 0.48,-0.07 1.89,-1.65 1.05,1 -0.78,0.47 1.44,-0.1 v -2.23 l 2.44,-0.14 z m -1.27,17.1 1.21,-1.25 V 11.93 l -1.25,0.1 z m 9.06,0.69 1.12,-2.32 c -6.93,1.53 -8.25,1.07 -8.25,1.07 l -1.22,1.28 z m 1.85,-1.47 -0.94,1.87 a 3,3 0 0 0 2,0 z m 0.59,-0.91 1.34,2.41 h 9.07 l -1.35,-1.19 a 26.81,26.81 0 0 1 -7.44,-1 13.46,13.46 0 0 0 -1.62,-0.17 z m 10.16,0.84 0.87,0.79 V 12.03 l -0.87,-0.1 z m -19.41,-0.65 a 21.17,21.17 0 0 0 4.18,-0.44 c 2.13,-0.4 3.94,-0.72 3.94,-0.72 V 11.37 l 0.5,-0.59 0.5,0.59 v 13.38 a 38.75,38.75 0 0 1 4.63,0.84 18.88,18.88 0 0 0 4.66,0.41 V 11.56 a 11,11 0 0 1 -4,-1.22 6.07,6.07 0 0 0 -5.74,0.32 4.65,4.65 0 0 0 -5.18,-0.27 7.69,7.69 0 0 1 -3.49,1 z"
     id="path15" /><polygon
     class="cls-1"
     points="127.96,192.72 133.03,192.72 132.67,193.92 127.59,193.92 "
     id="polygon15"
     transform="translate(1625.8882)" /><path
     class="cls-4"
     d="m 1644.4782,191.32 h -1.64 a 3.11,3.11 0 0 0 -3.36,2.76 h -0.6 l 0.56,-3.5 c 2,0 4,0.06 6,0.06 2,0 4,0 6,-0.06 l -0.58,3.38 h -0.6 a 6.64,6.64 0 0 0 0.08,-1 c 0,-1.36 -0.72,-1.68 -2,-1.68 h -2.06 l -2.06,10.86 a 7.18,7.18 0 0 0 -0.14,1 c 0,0.86 0.58,1.06 1.18,1.06 h 0.42 l -0.1,0.6 c -0.8,0 -1.74,-0.06 -2.78,-0.06 -1.04,0 -1.7,0 -2.34,0.06 l 0.14,-0.6 h 0.16 c 1.24,0 1.38,-0.4 1.78,-2.5 z"
     id="path16" /><path
     class="cls-4"
     d="m 1656.1582,202.56 c -1.1,1.24 -2.22,2.52 -4,2.52 a 2.56,2.56 0 0 1 -2.48,-2.83 c 0,-2.15 2.18,-6.57 5.48,-6.57 a 1.86,1.86 0 0 1 2,1.82 c 0,1.34 -1.32,3.16 -4.64,3.16 a 6,6 0 0 1 -1.06,-0.08 4.83,4.83 0 0 0 -0.28,1.42 c 0,1 0.44,2.25 1.52,2.25 0.88,0 1.92,-0.95 3,-2.13 z m -0.52,-5.28 c 0,-0.53 -0.24,-0.92 -0.84,-0.92 -1.48,0 -2.84,2.44 -3.12,3.56 a 7.18,7.18 0 0 0 0.86,0.06 3.06,3.06 0 0 0 3.1,-2.7 z"
     id="path17" /><path
     class="cls-4"
     d="m 1666.7982,193.08 c -0.1,-1.46 -0.34,-1.9 -1.62,-1.9 h -0.3 l 0.14,-0.6 c 0.48,0 1.36,0.06 2.66,0.06 1,0 1.82,0 2.34,-0.06 l -0.12,0.6 h -0.36 c -0.72,0 -1.06,0.22 -1.06,0.92 0,0.36 0,0.65 0,0.92 l 0.66,9.3 v 0 l 6.08,-12.22 h 0.56 l 0.68,12.42 v 0 l 5.12,-8.77 a 5.36,5.36 0 0 0 0.88,-1.89 c 0,-0.52 -0.42,-0.68 -1.1,-0.68 h -0.32 l 0.12,-0.6 c 0.48,0 1.34,0.06 2.62,0.06 1.28,0 1.88,0 2.22,-0.06 l -0.12,0.6 a 2.3,2.3 0 0 0 -2.28,1.22 l -8.14,12.68 h -0.6 l -0.49,-11.08 v 0 l -6.06,11.08 h -0.6 z"
     id="path18" /><path
     class="cls-4"
     d="m 1688.5382,191.46 a 5.24,5.24 0 0 0 0.14,-0.86 0.53,0.53 0 0 0 -0.56,-0.52 3.53,3.53 0 0 0 -0.92,0.14 l 0.14,-0.62 3.3,-0.76 -2.46,11.2 v 0 c 1,-1.66 2.94,-4.4 4.68,-4.4 a 1.19,1.19 0 0 1 1.32,1.2 4.19,4.19 0 0 1 -0.16,1 l -1.16,4.7 a 4.91,4.91 0 0 0 -0.12,0.72 0.41,0.41 0 0 0 0.46,0.46 c 0.58,0 1.06,-0.74 1.28,-1.32 l 0.54,0.16 c -0.18,0.58 -1.34,2.44 -2.64,2.44 a 1.26,1.26 0 0 1 -1.24,-1.38 5.05,5.05 0 0 1 0.18,-1.1 l 1.14,-4.48 a 3.71,3.71 0 0 0 0.12,-0.68 0.44,0.44 0 0 0 -0.46,-0.48 c -1.06,0 -2.62,2.12 -3.2,3 a 10.8,10.8 0 0 0 -1.8,4.78 l -1.54,0.32 z"
     id="path19" /><path
     class="cls-4"
     d="m 1706.9582,202.52 c -0.62,0.92 -1.74,2.56 -3,2.56 -0.76,0 -0.94,-0.58 -0.94,-1.16 a 12.09,12.09 0 0 1 0.32,-2.24 l 0.32,-1.36 v 0 c -0.84,1.64 -2.82,4.8 -5,4.8 -1.32,0 -1.78,-1.2 -1.78,-2.2 0,-2.18 2.4,-7.2 7.1,-7.2 0.48,0 1.12,0.07 1.46,0.07 a 4.39,4.39 0 0 0 0.72,-0.07 l -1.38,6.52 a 5,5 0 0 0 -0.14,1 0.43,0.43 0 0 0 0.44,0.48 c 0.42,0 1,-0.82 1.38,-1.32 z m -7.68,1.6 c 1.64,0 5,-5 5.12,-7.6 a 2.79,2.79 0 0 0 -0.7,-0.08 3.92,3.92 0 0 0 -3.76,2.12 9.09,9.09 0 0 0 -1.48,4.2 c 0,0.62 0.12,1.36 0.82,1.36 z"
     id="path20" /><path
     class="cls-4"
     d="m 1710.5782,198.58 a 6.36,6.36 0 0 0 0.22,-1.14 0.35,0.35 0 0 0 -0.34,-0.4 c -0.44,0 -0.94,0.54 -1.68,1.36 l -0.42,-0.36 c 0.08,-0.12 1.82,-2.36 3.18,-2.36 0.64,0 0.86,0.5 0.86,1.14 a 11.77,11.77 0 0 1 -0.66,2.72 v 0 c 0.22,-0.44 0.28,-0.58 0.46,-0.88 0.46,-0.8 1.72,-3 3.7,-3 a 1.55,1.55 0 0 1 0.44,0.07 l -0.32,1.83 a 2.29,2.29 0 0 0 -0.8,-0.14 c -1.54,0 -2.7,1.6 -3,2.2 a 19.81,19.81 0 0 0 -1.64,5.12 l -1.6,0.32 z"
     id="path21" /><path
     class="cls-4"
     d="m 1723.1782,202.56 c -1.1,1.24 -2.22,2.52 -4,2.52 a 2.56,2.56 0 0 1 -2.48,-2.83 c 0,-2.15 2.18,-6.57 5.48,-6.57 a 1.86,1.86 0 0 1 2,1.82 c 0,1.34 -1.32,3.16 -4.64,3.16 a 6,6 0 0 1 -1.06,-0.08 4.83,4.83 0 0 0 -0.28,1.42 c 0,1 0.44,2.25 1.52,2.25 0.88,0 1.92,-0.95 3,-2.13 z m -0.52,-5.28 c 0,-0.53 -0.24,-0.92 -0.84,-0.92 -1.48,0 -2.84,2.44 -3.12,3.56 a 7.18,7.18 0 0 0 0.86,0.06 3.06,3.06 0 0 0 3.1,-2.7 z"
     id="path22" /><path
     class="cls-4"
     d="m 1733.8182,193.08 c -0.1,-1.46 -0.34,-1.9 -1.62,-1.9 h -0.3 l 0.14,-0.6 c 0.48,0 1.36,0.06 2.66,0.06 1,0 1.82,0 2.34,-0.06 l -0.12,0.6 h -0.36 c -0.72,0 -1.06,0.22 -1.06,0.92 0,0.36 0,0.65 0,0.92 l 0.66,9.3 v 0 l 6.21,-12.22 h 0.56 l 0.68,12.42 v 0 l 5.12,-8.77 a 5.36,5.36 0 0 0 0.88,-1.89 c 0,-0.52 -0.42,-0.68 -1.1,-0.68 h -0.32 l 0.12,-0.6 c 0.48,0 1.34,0.06 2.62,0.06 1.28,0 1.88,0 2.22,-0.06 l -0.12,0.6 a 2.3,2.3 0 0 0 -2.28,1.22 l -8.14,12.68 h -0.6 l -0.58,-11.08 v 0 l -6.06,11.08 h -0.6 z"
     id="path23" /><path
     class="cls-4"
     d="m 1759.9382,202.52 c -0.62,0.92 -1.74,2.56 -3,2.56 -0.76,0 -0.94,-0.58 -0.94,-1.16 a 12.09,12.09 0 0 1 0.32,-2.24 l 0.32,-1.36 v 0 c -0.84,1.64 -2.82,4.8 -5,4.8 -1.32,0 -1.78,-1.2 -1.78,-2.2 0,-2.18 2.4,-7.2 7.1,-7.2 0.48,0 1.12,0.07 1.46,0.07 a 4.39,4.39 0 0 0 0.72,-0.07 l -1.38,6.52 a 5,5 0 0 0 -0.14,1 0.43,0.43 0 0 0 0.44,0.48 c 0.42,0 1,-0.82 1.38,-1.32 z m -7.68,1.6 c 1.64,0 5,-5 5.12,-7.6 a 2.79,2.79 0 0 0 -0.7,-0.08 3.92,3.92 0 0 0 -3.76,2.12 9.09,9.09 0 0 0 -1.48,4.2 c 0,0.62 0.12,1.36 0.82,1.36 z"
     id="path24" /><path
     class="cls-4"
     d="m 1761.3682,198.1 c 0.24,-0.35 1.78,-2.42 2.84,-2.42 0.56,0 0.88,0.36 0.88,1.2 a 18.37,18.37 0 0 1 -0.64,3.46 v 0 c 0.54,-1 2.62,-4.7 4.54,-4.7 1.08,0 1.46,0.64 1.46,1.26 0,1.06 -1.46,5.22 -1.46,6.2 a 0.45,0.45 0 0 0 0.46,0.5 c 0.3,0 0.58,-0.1 1.14,-0.8 l 0.5,-0.62 0.42,0.38 c -1,1.24 -2,2.4 -3.1,2.4 -0.72,0 -1.1,-0.38 -1.1,-0.94 0,-1.08 1.54,-6.06 1.54,-6.84 a 0.5,0.5 0 0 0 -0.52,-0.5 c -0.68,0 -1.9,1.42 -3,3.12 a 14.22,14.22 0 0 0 -1.84,4.92 l -1.6,0.32 1.24,-5.5 a 11.36,11.36 0 0 0 0.36,-2.06 c 0,-0.26 -0.1,-0.46 -0.32,-0.46 -0.4,0 -1,0.74 -1.44,1.34 z"
     id="path25" /><path
     class="cls-4"
     d="m 1783.0182,202.52 c -0.62,0.92 -1.74,2.56 -3,2.56 -0.76,0 -0.94,-0.58 -0.94,-1.16 a 12.09,12.09 0 0 1 0.32,-2.24 l 0.32,-1.36 v 0 c -0.84,1.64 -2.82,4.8 -5,4.8 -1.32,0 -1.78,-1.2 -1.78,-2.2 0,-2.18 2.4,-7.2 7.1,-7.2 0.48,0 1.12,0.07 1.46,0.07 a 4.39,4.39 0 0 0 0.72,-0.07 l -1.38,6.52 a 5,5 0 0 0 -0.14,1 0.43,0.43 0 0 0 0.44,0.48 c 0.42,0 1,-0.82 1.38,-1.32 z m -7.68,1.6 c 1.64,0 5,-5 5.12,-7.6 a 2.79,2.79 0 0 0 -0.7,-0.08 3.92,3.92 0 0 0 -3.76,2.12 9.09,9.09 0 0 0 -1.48,4.2 c 0,0.62 0.12,1.36 0.85,1.36 z"
     id="path26" /><path
     class="cls-4"
     d="m 1784.4182,198.1 c 0.24,-0.35 1.78,-2.42 2.84,-2.42 0.56,0 0.88,0.36 0.88,1.2 a 18.37,18.37 0 0 1 -0.64,3.46 v 0 c 0.54,-1 2.62,-4.7 4.54,-4.7 1.08,0 1.46,0.64 1.46,1.26 0,1.06 -1.46,5.22 -1.46,6.2 a 0.45,0.45 0 0 0 0.46,0.5 c 0.3,0 0.58,-0.1 1.14,-0.8 l 0.5,-0.62 0.42,0.38 c -1,1.24 -2,2.4 -3.1,2.4 -0.72,0 -1.1,-0.38 -1.1,-0.94 0,-1.08 1.54,-6.06 1.54,-6.84 a 0.5,0.5 0 0 0 -0.52,-0.5 c -0.68,0 -1.9,1.42 -3,3.12 a 14.22,14.22 0 0 0 -1.84,4.92 l -1.6,0.32 1.24,-5.5 a 11.36,11.36 0 0 0 0.36,-2.06 c 0,-0.26 -0.1,-0.46 -0.32,-0.46 -0.4,0 -1,0.74 -1.44,1.34 z"
     id="path27" /><path
     class="cls-4"
     d="m 1804.8782,194.66 a 1.72,1.72 0 0 1 0,0.44 c 0,1 -0.54,1.56 -1.76,2 a 2.81,2.81 0 0 1 0.18,1 c 0,3.6 -5.24,3.76 -5.24,5 0,1.24 5.4,1.32 5.4,3.86 0,1.24 -1.32,2.4 -4.18,2.4 -2.66,0 -4.3,-1 -4.3,-2.26 0,-1.26 1.16,-1.94 2.34,-2.28 v 0 c -0.68,-0.32 -1.1,-0.7 -1.1,-1.16 0,-0.9 1.1,-1.42 2.68,-2 v 0 a 2,2 0 0 1 -2,-2.18 3.93,3.93 0 0 1 3.8,-3.66 2.63,2.63 0 0 1 2.18,0.94 c 0.3,-0.06 0.52,-0.22 0.52,-0.52 a 1.62,1.62 0 0 0 -0.5,-0.94 z m -6.51,10.54 c -0.64,0.08 -2,0.55 -2,1.72 0,0.83 0.8,1.74 3,1.74 1.54,0 2.58,-0.44 2.58,-1.36 0.03,-1.08 -1.89,-1.7 -3.58,-2.1 z m 2.32,-8.92 c -1.22,0 -2.3,1.76 -2.3,3.34 0,1 0.36,1.46 1.14,1.46 1.48,0 2.1,-2.06 2.1,-3.32 0.03,-1.06 -0.39,-1.48 -0.91,-1.48 z"
     id="path28" /><path
     class="cls-4"
     d="m 1815.0382,202.52 c -0.62,0.92 -1.74,2.56 -3,2.56 -0.76,0 -0.94,-0.58 -0.94,-1.16 a 12.09,12.09 0 0 1 0.32,-2.24 l 0.32,-1.36 v 0 c -0.84,1.64 -2.82,4.8 -5,4.8 -1.32,0 -1.78,-1.2 -1.78,-2.2 0,-2.18 2.4,-7.2 7.1,-7.2 0.48,0 1.12,0.07 1.46,0.07 a 4.39,4.39 0 0 0 0.72,-0.07 l -1.38,6.52 a 5,5 0 0 0 -0.14,1 0.43,0.43 0 0 0 0.44,0.48 c 0.42,0 1,-0.82 1.38,-1.32 z m -7.68,1.6 c 1.64,0 5,-5 5.12,-7.6 a 2.79,2.79 0 0 0 -0.7,-0.08 3.92,3.92 0 0 0 -3.76,2.12 9.09,9.09 0 0 0 -1.48,4.2 c 0,0.62 0.12,1.36 0.83,1.36 z"
     id="path29" /><path
     class="cls-4"
     d="m 1827.9782,195.68 a 2.86,2.86 0 0 1 3.12,3 c 0,2.68 -2.1,6.38 -5.18,6.38 a 3.13,3.13 0 0 1 -3,-3.42 c 0,-3.2 2.7,-5.96 5.06,-5.96 z m -0.08,0.6 c -2.06,0 -3.38,3.54 -3.38,5.78 0,1.7 0.48,2.42 1.46,2.42 2.38,0 3.52,-4.92 3.52,-6.23 0,-1.71 -0.92,-1.97 -1.6,-1.97 z"
     id="path30" /><path
     class="cls-4"
     d="m 1841.1782,193.08 c -0.1,-1.46 -0.34,-1.9 -1.62,-1.9 h -0.3 l 0.14,-0.6 c 0.48,0 1.36,0.06 2.66,0.06 1,0 1.82,0 2.34,-0.06 l -0.12,0.6 h -0.36 c -0.72,0 -1.06,0.22 -1.06,0.92 0,0.36 0,0.65 0,0.92 l 0.66,9.3 v 0 l 6.08,-12.22 h 0.56 l 0.68,12.42 v 0 l 5.12,-8.77 a 5.36,5.36 0 0 0 0.88,-1.89 c 0,-0.52 -0.42,-0.68 -1.1,-0.68 h -0.32 l 0.12,-0.6 c 0.48,0 1.34,0.06 2.62,0.06 1.28,0 1.88,0 2.22,-0.06 l -0.12,0.6 a 2.3,2.3 0 0 0 -2.28,1.22 l -8.14,12.68 h -0.47 l -0.58,-11.08 v 0 l -6.06,11.08 h -0.6 z"
     id="path31" /><path
     class="cls-4"
     d="m 1867.2982,202.52 c -0.62,0.92 -1.74,2.56 -3,2.56 -0.76,0 -0.94,-0.58 -0.94,-1.16 a 12.09,12.09 0 0 1 0.32,-2.24 l 0.32,-1.36 v 0 c -0.84,1.64 -2.82,4.8 -5,4.8 -1.32,0 -1.78,-1.2 -1.78,-2.2 0,-2.18 2.4,-7.2 7.1,-7.2 0.48,0 1.12,0.07 1.46,0.07 a 4.39,4.39 0 0 0 0.72,-0.07 l -1.38,6.52 a 5,5 0 0 0 -0.14,1 0.43,0.43 0 0 0 0.44,0.48 c 0.42,0 1,-0.82 1.38,-1.32 z m -7.68,1.6 c 1.64,0 5,-5 5.12,-7.6 a 2.79,2.79 0 0 0 -0.7,-0.08 3.92,3.92 0 0 0 -3.76,2.12 9.09,9.09 0 0 0 -1.48,4.2 c 0,0.62 0.12,1.36 0.82,1.36 z"
     id="path32" /><path
     class="cls-4"
     d="m 1870.8582,198.25 a 7.19,7.19 0 0 0 0.2,-1 c 0,-0.18 -0.08,-0.4 -0.32,-0.4 -0.56,0 -1.2,0.92 -1.56,1.48 l -0.44,-0.32 0.08,-0.14 c 0.4,-0.7 1.62,-2.22 2.7,-2.22 a 1.08,1.08 0 0 1 1.14,1.1 7.24,7.24 0 0 1 -0.24,1.18 l -1,4.58 a 4.64,4.64 0 0 0 -0.14,0.78 c 0,0.38 0.22,0.56 0.46,0.56 0.48,0 0.82,-0.46 1,-0.82 l 0.36,-0.58 0.46,0.27 c -0.5,0.83 -1.4,2.33 -2.7,2.33 a 1.19,1.19 0 0 1 -1.14,-1.33 4.92,4.92 0 0 1 0.18,-1.27 z m 1.82,-6.85 a 0.7,0.7 0 0 1 0.78,0.74 1.37,1.37 0 0 1 -1.28,1.42 0.72,0.72 0 0 1 -0.72,-0.76 1.32,1.32 0 0 1 1.22,-1.4 z"
     id="path33" /><path
     class="cls-4"
     d="m 1877.3682,196.72 h -2 l 0.76,-0.84 h 1.42 l 0.38,-1.82 1.58,-0.4 -0.44,2.22 h 2.1 l -0.1,0.84 h -2.2 l -1.18,5.42 a 9.86,9.86 0 0 0 -0.26,1.32 0.45,0.45 0 0 0 0.44,0.5 c 0.6,0 1.32,-1.2 1.6,-1.66 l 0.5,0.26 c -0.7,1.24 -1.82,2.52 -2.94,2.52 -0.7,0 -1.12,-0.5 -1.12,-1.3 a 8.46,8.46 0 0 1 0.26,-1.72 z"
     id="path34" /><path
     class="cls-4"
     d="m 1891.9182,202.52 c -0.62,0.92 -1.74,2.56 -3,2.56 -0.76,0 -0.94,-0.58 -0.94,-1.16 a 12.09,12.09 0 0 1 0.32,-2.24 l 0.32,-1.36 v 0 c -0.84,1.64 -2.82,4.8 -5,4.8 -1.32,0 -1.78,-1.2 -1.78,-2.2 0,-2.18 2.4,-7.2 7.1,-7.2 0.48,0 1.12,0.07 1.46,0.07 a 4.39,4.39 0 0 0 0.72,-0.07 l -1.38,6.52 a 5,5 0 0 0 -0.14,1 0.43,0.43 0 0 0 0.44,0.48 c 0.42,0 1,-0.82 1.38,-1.32 z m -7.68,1.6 c 1.64,0 5,-5 5.12,-7.6 a 2.79,2.79 0 0 0 -0.7,-0.08 3.92,3.92 0 0 0 -3.76,2.12 9.09,9.09 0 0 0 -1.48,4.2 c 0,0.62 0.12,1.36 0.82,1.36 z"
     id="path35" /><path
     class="cls-4"
     d="m 1896.5782,191.46 a 5.24,5.24 0 0 0 0.14,-0.86 0.53,0.53 0 0 0 -0.56,-0.52 3.53,3.53 0 0 0 -0.92,0.14 l 0.14,-0.62 3.3,-0.76 -2.46,11.2 v 0 c 1,-1.66 2.94,-4.4 4.68,-4.4 a 1.19,1.19 0 0 1 1.32,1.2 4.19,4.19 0 0 1 -0.16,1 l -1.16,4.7 a 4.91,4.91 0 0 0 -0.12,0.72 0.41,0.41 0 0 0 0.46,0.46 c 0.58,0 1.06,-0.74 1.28,-1.32 l 0.54,0.16 c -0.18,0.58 -1.34,2.44 -2.64,2.44 a 1.26,1.26 0 0 1 -1.24,-1.38 5.05,5.05 0 0 1 0.18,-1.1 l 1.14,-4.48 a 3.71,3.71 0 0 0 0.12,-0.68 0.44,0.44 0 0 0 -0.46,-0.48 c -1.06,0 -2.62,2.12 -3.2,3 a 10.8,10.8 0 0 0 -1.8,4.78 l -1.54,0.32 z"
     id="path36" /><path
     class="cls-4"
     d="m 1914.9982,202.52 c -0.62,0.92 -1.74,2.56 -3,2.56 -0.76,0 -0.94,-0.58 -0.94,-1.16 a 12.09,12.09 0 0 1 0.32,-2.24 l 0.32,-1.36 v 0 c -0.84,1.64 -2.82,4.8 -5,4.8 -1.32,0 -1.78,-1.2 -1.78,-2.2 0,-2.18 2.4,-7.2 7.1,-7.2 0.48,0 1.12,0.07 1.46,0.07 a 4.39,4.39 0 0 0 0.72,-0.07 l -1.38,6.52 a 5,5 0 0 0 -0.14,1 0.43,0.43 0 0 0 0.44,0.48 c 0.42,0 1,-0.82 1.38,-1.32 z m -7.68,1.6 c 1.64,0 5,-5 5.12,-7.6 a 2.79,2.79 0 0 0 -0.7,-0.08 3.92,3.92 0 0 0 -3.76,2.12 9.09,9.09 0 0 0 -1.48,4.2 c 0,0.62 0.12,1.36 0.87,1.36 z"
     id="path37" /><path
     class="cls-4"
     d="m 1648.0182,216.73 h -0.35 c -0.3,-1.93 -1.93,-2.64 -3.54,-2.64 -1.78,0 -3.51,1.41 -3.51,4 0,2.59 1.44,4.81 3.76,4.81 a 4.66,4.66 0 0 0 3.73,-2.41 l 0.12,1.58 a 7.07,7.07 0 0 1 -4.28,1.4 c -4.64,0 -5.32,-3.6 -5.32,-5.06 0,-2.17 1.54,-4.84 5.71,-4.84 a 11.32,11.32 0 0 1 3.68,0.75 z"
     id="path38" /><path
     class="cls-4"
     d="m 1651.3682,222.9 c 0.87,0 1.11,-0.34 1.11,-1.09 v -6.57 c 0,-0.75 -0.24,-1.07 -1.11,-1.08 v -0.41 h 1.95 2 v 0.41 c -0.87,0 -1.11,0.33 -1.11,1.08 v 2.71 h 5 v -2.71 c 0,-0.75 -0.25,-1.07 -1.12,-1.08 v -0.41 h 2 2 v 0.41 c -0.87,0 -1.12,0.33 -1.12,1.08 v 6.59 c 0,0.75 0.25,1.08 1.12,1.09 v 0.4 h -2 -2 v -0.4 c 0.87,0 1.12,-0.34 1.12,-1.09 v -3.3 h -5 v 3.3 c 0,0.75 0.24,1.08 1.11,1.09 v 0.4 h -2 -1.95 z"
     id="path39" /><path
     class="cls-4"
     d="m 1664.9782,222.9 c 0.87,0 1.11,-0.34 1.11,-1.09 v -6.57 c 0,-0.75 -0.24,-1.07 -1.11,-1.08 v -0.41 c 0.63,0 1.16,0 1.66,0 0.87,0 1.76,0 2.63,0 2.33,0 3.07,1.17 3.07,2.48 a 2.45,2.45 0 0 1 -1.87,2.34 l 1.68,3.08 c 0.6,1.11 0.93,1.37 1.69,1.48 v 0.32 c -0.2,0 -0.4,0 -0.62,0 -1.78,0 -2.52,-0.62 -3.27,-2.22 l -0.52,-1.11 c -0.56,-1.19 -0.75,-1.29 -1.65,-1.3 v 3 c 0,0.75 0.24,1.08 1.11,1.09 v 0.4 h -2 -2 z m 2.8,-4.55 a 4.32,4.32 0 0 0 0.88,0.1 c 1.21,0 1.94,-0.55 1.94,-1.85 a 2.23,2.23 0 0 0 -2.24,-2.44 2.56,2.56 0 0 0 -0.58,0 z"
     id="path40" /><path
     class="cls-4"
     d="m 1676.5782,222.9 c 0.87,0 1.11,-0.34 1.11,-1.09 v -6.57 c 0,-0.75 -0.24,-1.07 -1.11,-1.08 v -0.41 h 1.95 2 v 0.41 c -0.87,0 -1.11,0.33 -1.11,1.08 v 6.59 c 0,0.75 0.24,1.08 1.11,1.09 v 0.4 h -2 -1.95 z"
     id="path41" /><path
     class="cls-4"
     d="m 1683.7082,220.71 h 0.52 a 2.74,2.74 0 0 0 2.56,2.26 1.74,1.74 0 0 0 2,-1.59 c 0,-2.14 -4.89,-2 -4.89,-5 0,-0.68 0.39,-2.79 3.38,-2.79 a 8,8 0 0 1 2.48,0.35 l 0.08,2.37 h -0.5 a 2.29,2.29 0 0 0 -2.45,-2.21 1.56,1.56 0 0 0 -1.73,1.42 c 0,2 5,2.13 5,5.12 0,1.58 -1.13,2.85 -3.35,2.85 a 11.53,11.53 0 0 1 -2.92,-0.45 z"
     id="path42" /><path
     class="cls-4"
     d="m 1695.5582,222.9 c 0.87,0 1.11,-0.34 1.11,-1.09 v -7.39 h -1.18 c -1.07,0 -1.78,0.3 -1.86,2 h -0.5 l 0.09,-2.66 h 4.3 c 1.43,0 2.87,0 4.3,0 l 0.08,2.66 h -0.53 c -0.08,-1.69 -0.79,-2 -1.87,-2 h -1.13 v 7.41 c 0,0.75 0.25,1.08 1.12,1.09 v 0.4 h -2 -2 z"
     id="path43" /><path
     class="cls-4"
     d="m 1714.3682,216.73 h -0.35 c -0.3,-1.93 -1.93,-2.64 -3.54,-2.64 -1.78,0 -3.51,1.41 -3.51,4 0,2.59 1.44,4.81 3.76,4.81 a 4.66,4.66 0 0 0 3.73,-2.41 l 0.12,1.58 a 7.07,7.07 0 0 1 -4.28,1.4 c -4.64,0 -5.32,-3.6 -5.32,-5.06 0,-2.17 1.54,-4.84 5.71,-4.84 a 11.32,11.32 0 0 1 3.68,0.75 z"
     id="path44" /><path
     class="cls-4"
     d="m 1717.7682,222.9 c 0.87,0 1.11,-0.34 1.11,-1.09 v -6.57 c 0,-0.75 -0.24,-1.07 -1.11,-1.08 v -0.41 h 1.95 2 v 0.41 c -0.87,0 -1.11,0.33 -1.11,1.08 v 2.71 h 5 v -2.71 c 0,-0.75 -0.25,-1.07 -1.12,-1.08 v -0.41 h 2 2 v 0.41 c -0.87,0 -1.11,0.33 -1.11,1.08 v 6.59 c 0,0.75 0.24,1.08 1.11,1.09 v 0.4 h -2 -2 v -0.4 c 0.87,0 1.12,-0.34 1.12,-1.09 v -3.3 h -5 v 3.3 c 0,0.75 0.24,1.08 1.11,1.09 v 0.4 h -2 -1.95 z"
     id="path45" /><path
     class="cls-4"
     d="m 1741.7682,214.16 c -0.88,0 -1.1,0.33 -1.12,1.08 v 4.31 c 0,1.95 -0.85,3.93 -3.79,3.93 -2.48,0 -4.38,-1.08 -4.38,-3.95 v -4.29 c 0,-0.75 -0.24,-1.07 -1.11,-1.08 v -0.41 c 1.07,0 1.53,0 2,0 0.47,0 0.88,0 2,0 v 0.41 c -0.88,0 -1.12,0.33 -1.12,1.08 v 4.59 a 2.8,2.8 0 0 0 2.78,3.1 c 2.33,0 3.16,-1.51 3.16,-3.84 0,-0.75 0,-1.29 0,-1.88 v -1.94 c 0,-0.81 -0.19,-1.15 -1.17,-1.15 v -0.41 c 0.5,0 1,0 1.45,0 0.45,0 1,0 1.49,0 z"
     id="path46" /><path
     class="cls-4"
     d="m 1744.6882,222.9 c 0.87,0 1.11,-0.34 1.11,-1.09 v -6.57 c 0,-0.75 -0.24,-1.07 -1.11,-1.08 v -0.41 c 0.63,0 1.17,0 1.66,0 0.87,0 1.76,0 2.63,0 2.33,0 3.07,1.17 3.07,2.48 a 2.45,2.45 0 0 1 -1.86,2.34 l 1.67,3.08 c 0.61,1.11 0.93,1.37 1.69,1.48 v 0.32 c -0.2,0 -0.4,0 -0.62,0 -1.78,0 -2.52,-0.62 -3.27,-2.22 l -0.52,-1.11 c -0.56,-1.19 -0.75,-1.29 -1.65,-1.3 v 3 c 0,0.75 0.24,1.08 1.11,1.09 v 0.4 h -2 -2 z m 2.8,-4.55 a 4.41,4.41 0 0 0 0.89,0.1 c 1.2,0 1.93,-0.55 1.93,-1.85 a 2.23,2.23 0 0 0 -2.24,-2.44 2.56,2.56 0 0 0 -0.58,0 z"
     id="path47" /><path
     class="cls-4"
     d="m 1765.9882,216.73 h -0.34 c -0.3,-1.93 -1.93,-2.64 -3.54,-2.64 -1.79,0 -3.52,1.41 -3.52,4 0,2.59 1.45,4.81 3.77,4.81 a 4.66,4.66 0 0 0 3.73,-2.41 l 0.12,1.58 a 7.07,7.07 0 0 1 -4.28,1.4 c -4.64,0 -5.32,-3.6 -5.32,-5.06 0,-2.17 1.54,-4.84 5.71,-4.84 a 11.26,11.26 0 0 1 3.67,0.75 z"
     id="path48" /><path
     class="cls-4"
     d="m 1769.3682,222.9 c 0.88,0 1.12,-0.34 1.12,-1.09 v -6.57 c 0,-0.75 -0.24,-1.07 -1.12,-1.08 v -0.41 h 2 2 v 0.41 c -0.87,0 -1.11,0.33 -1.11,1.08 v 2.71 h 5 v -2.71 c 0,-0.75 -0.24,-1.07 -1.11,-1.08 v -0.41 h 2 2 v 0.41 c -0.88,0 -1.12,0.33 -1.12,1.08 v 6.59 c 0,0.75 0.24,1.08 1.12,1.09 v 0.4 h -2 -2 v -0.4 c 0.87,0 1.11,-0.34 1.11,-1.09 v -3.3 h -5 v 3.3 c 0,0.75 0.24,1.08 1.11,1.09 v 0.4 h -2 -2 z"
     id="path49" /><path
     class="cls-4"
     d="m 1788.9982,222.9 c 0.87,0 1.12,-0.34 1.12,-1.09 v -6.57 c 0,-0.75 -0.25,-1.07 -1.12,-1.08 v -0.41 c 0.55,0 1.08,0 1.45,0 0.37,0 0.68,0 1.07,0 l 6.32,7.07 v -5.51 c 0,-0.81 -0.19,-1.15 -1.15,-1.15 v -0.41 c 0.49,0 1,0 1.44,0 0.44,0 1,0 1.49,0 v 0.41 c -0.87,0 -1.11,0.33 -1.11,1.08 v 8.15 h -0.54 l -7.25,-8 0.11,6.3 c 0,1 0.26,1.13 1.11,1.21 v 0.4 c -0.4,0 -1.13,0 -1.45,0 -0.32,0 -1,0 -1.45,0 z"
     id="path50" /><path
     class="cls-4"
     d="m 1802.4382,222.9 c 0.87,0 1.11,-0.34 1.11,-1.09 v -6.57 c 0,-0.75 -0.24,-1.07 -1.11,-1.08 v -0.41 c 0.45,0 1.11,0 1.79,0 2.06,0 3.71,0 4.95,0 l 0.06,2.26 h -0.43 c -0.22,-1.29 -0.79,-1.75 -2.4,-1.75 h -1.17 v 3.88 h 1 c 1.22,0 1.4,-0.44 1.49,-1.29 h 0.46 c 0,0.52 0,1 0,1.45 0,0.63 0,1.14 0,1.68 h -0.46 c 0,-1.06 -0.33,-1.33 -1.5,-1.33 h -1 v 3.18 c 0,0.62 0.25,1 1.51,1 1.26,0 2.33,-0.25 2.65,-1.94 h 0.45 a 24.28,24.28 0 0 0 -0.2,2.45 c -1.3,0 -3,0 -5.11,0 -1,0 -1.83,0 -2.1,0 z"
     id="path51" /><path
     class="cls-4"
     d="m 1812.7582,213.75 c 1.14,0 1.58,0 2,0 0.42,0 0.83,0 2,0 v 0.41 h -0.39 c -0.45,0 -0.72,0.2 -0.72,0.56 a 2.17,2.17 0 0 0 0.19,0.72 l 1.93,5.46 v 0 l 2.27,-7.32 h 0.24 l 2.61,7.35 v 0 l 1.61,-5.41 a 3.81,3.81 0 0 0 0.16,-0.76 c 0,-0.46 -0.36,-0.59 -1,-0.6 v -0.41 c 0.45,0 1.05,0 1.5,0 0.45,0 1.06,0 1.49,0 v 0.41 c -0.92,0 -1.14,0.3 -1.42,1.16 l -2.72,8.07 h -0.39 l -2.48,-6.82 v 0 l -2.27,6.82 h -0.4 l -2.94,-8 c -0.39,-1.1 -0.59,-1.19 -1.3,-1.23 z"
     id="path52" /><path
     class="cls-4"
     d="m 1835.3682,223.05 6,-8.52 h -3.5 c -0.92,0 -1.51,0.32 -1.68,1.87 h -0.45 l 0.08,-2.65 c 1.09,0 2.59,0 4.08,0 1.49,0 2.72,0 4.08,0 l -6.2,8.88 h 3.69 c 1.39,0 1.77,-0.64 2,-2 h 0.47 l -0.13,2.69 c -1.13,0 -2.66,0 -4.18,0 -1.68,0 -3.21,0 -4.2,0 z"
     id="path53" /><path
     class="cls-4"
     d="m 1846.8582,222.9 c 0.87,0 1.11,-0.34 1.11,-1.09 v -6.57 c 0,-0.75 -0.24,-1.07 -1.11,-1.08 v -0.41 c 0.45,0 1.11,0 1.8,0 2,0 3.7,0 4.94,0 l 0.06,2.26 h -0.43 c -0.22,-1.29 -0.79,-1.75 -2.4,-1.75 h -1.17 v 3.88 h 1 c 1.22,0 1.4,-0.44 1.49,-1.29 h 0.46 c 0,0.52 0,1 0,1.45 0,0.63 0,1.14 0,1.68 h -0.46 c 0,-1.06 -0.33,-1.33 -1.5,-1.33 h -1 v 3.18 c 0,0.62 0.26,1 1.52,1 1.26,0 2.32,-0.25 2.64,-1.94 h 0.45 a 24.28,24.28 0 0 0 -0.2,2.45 c -1.3,0 -3,0 -5.11,0 -1,0 -1.83,0 -2.1,0 z"
     id="path54" /><path
     class="cls-4"
     d="m 1857.1182,222.9 c 0.92,-0.06 1.18,-0.19 1.91,-2 l 2.95,-7.12 h 0.23 l 3.63,8.12 c 0.35,0.77 0.68,1 1.37,1 v 0.4 c -0.92,0 -1.51,0 -2,0 -0.49,0 -1.11,0 -2.05,0 v -0.4 c 0.75,0 1,-0.14 1,-0.5 a 4.11,4.11 0 0 0 -0.38,-1.1 l -0.54,-1.26 h -3.07 l -0.39,1.09 a 4.48,4.48 0 0 0 -0.36,1.26 c 0,0.35 0.16,0.5 1,0.51 v 0.4 c -1.15,0 -1.28,0 -1.61,0 -0.33,0 -0.46,0 -1.6,0 z m 5.83,-3.37 -1.45,-3.44 -1.23,3.44 z"
     id="path55" /><path
     class="cls-4"
     d="m 1869.8082,222.9 c 0.88,0 1.12,-0.34 1.12,-1.09 v -6.57 c 0,-0.75 -0.24,-1.07 -1.12,-1.08 v -0.41 h 2 2 v 0.41 c -0.87,0 -1.11,0.33 -1.11,1.08 v 6.59 c 0,0.7 0.38,0.93 1.5,0.93 1.77,0 2.65,-0.23 2.92,-1.89 h 0.46 l -0.22,2.45 c -1.35,0 -3.91,0 -6.47,0 a 8.94,8.94 0 0 0 -1,0 z"
     id="path56" /><path
     class="cls-4"
     d="m 1880.0682,222.9 c 0.93,-0.06 1.18,-0.19 1.92,-2 l 2.95,-7.12 h 0.23 l 3.63,8.12 c 0.35,0.77 0.67,1 1.37,1 v 0.4 c -0.93,0 -1.52,0 -2.05,0 -0.53,0 -1.12,0 -2.06,0 v -0.4 c 0.76,0 1,-0.14 1,-0.5 a 3.74,3.74 0 0 0 -0.38,-1.1 l -0.53,-1.26 h -3.07 l -0.39,1.09 a 4.07,4.07 0 0 0 -0.36,1.26 c 0,0.35 0.16,0.5 1,0.51 v 0.4 c -1.15,0 -1.29,0 -1.61,0 -0.32,0 -0.47,0 -1.61,0 z m 5.83,-3.37 -1.45,-3.44 -1.23,3.44 z"
     id="path57" /><path
     class="cls-4"
     d="m 1892.6682,222.9 c 0.88,0 1.12,-0.34 1.12,-1.09 v -6.57 c 0,-0.75 -0.24,-1.07 -1.12,-1.08 v -0.41 c 0.55,0 1.08,0 1.45,0 0.37,0 0.69,0 1.08,0 l 6.31,7.07 v -5.51 c 0,-0.81 -0.19,-1.15 -1.15,-1.15 v -0.41 c 0.49,0 1,0 1.45,0 0.45,0 1,0 1.48,0 v 0.41 c -0.87,0 -1.11,0.33 -1.11,1.08 v 8.15 h -0.54 l -7.25,-8 0.11,6.3 c 0,1 0.27,1.13 1.11,1.21 v 0.4 c -0.4,0 -1.13,0 -1.45,0 -0.32,0 -1,0 -1.45,0 z"
     id="path58" /><path
     class="cls-4"
     d="m 1906.1082,222.9 c 0.87,0 1.11,-0.34 1.11,-1.09 v -6.57 c 0,-0.75 -0.24,-1.07 -1.11,-1.08 v -0.41 c 0.42,0 0.92,0 1.57,0 1.18,0 2.36,0 3.48,0 3.41,0 5,2.08 5,4.91 0,1.44 -0.78,4.64 -5.48,4.64 -1,0 -2.08,0 -3.16,0 -0.56,0 -1.06,0 -1.43,0 z m 2.8,-1.05 c 0,0.71 0.31,0.89 1.32,0.89 2.13,0 4,-0.93 4,-3.9 a 4.93,4.93 0 0 0 -1.44,-3.87 c -0.65,-0.55 -1.34,-0.71 -2.9,-0.71 h -0.94 z"
     id="path59" /><path
     class="cls-4"
     d="m 1659.5082,117.36 -0.08,8.53 c 0,4 -0.25,5.26 -1.23,7 -1.67,3.08 -4.83,4.72 -9,4.72 -5.15,0 -9.14,-2.69 -10.2,-6.94 a 16.69,16.69 0 0 1 -0.43,-4.35 v -8.86 c 0,-2.83 -0.29,-3.26 -2.54,-3.7 a 2.25,2.25 0 0 1 -0.4,-0.07 v -0.84 h 0.69 a 30.25,30.25 0 0 0 3.08,0.11 c 1.38,0 2.76,0 3.34,0 l 2,-0.08 h 0.84 v 0.83 c -2.32,0.26 -2.8,0.84 -2.8,3.56 v 9.91 c 0,3 0.26,4.28 1.06,5.7 a 7.23,7.23 0 0 0 6.53,3.55 7.35,7.35 0 0 0 7.55,-6.28 14.4,14.4 0 0 0 0.15,-2.35 v -0.97 l -0.22,-9.29 c -0.07,-3.09 -0.4,-3.56 -2.76,-3.82 h -0.44 v -0.84 h 0.4 l 1.56,0.07 c 0.48,0 1,0 1.53,0 0.53,0 1.09,0 2.28,0 h 1.46 0.54 v 0.87 c -2.19,0.01 -2.88,0.89 -2.91,3.54 z"
     id="path60" /><path
     class="cls-4"
     d="m 1692.8582,113.95 h -0.25 c -2.14,0.1 -2.76,0.83 -2.76,3.26 v 20.51 h -0.87 l -18.84,-20.65 v 15.13 c 0,3.16 0.61,3.92 3.23,4 v 0.91 h -7.66 v -0.87 c 2.47,-0.18 3,-0.94 3,-4 v -15.75 c 0,-1.78 -0.76,-2.51 -2.69,-2.58 h -0.25 V 113 h 0.54 1.35 1.41 1.38 1.71 l 16.09,17.83 v -13.51 c 0,-2.65 -0.47,-3.19 -3,-3.37 v -1 h 0.58 c 1,0.07 2.58,0.1 3.41,0.1 h 1.49 2.14 z"
     id="path61" /><path
     class="cls-4"
     d="m 1704.9082,113.83 c -2.21,0.07 -2.72,0.69 -2.72,3.27 v 16 c 0,2.58 0.51,3.2 2.72,3.23 v 0.84 c -2.14,0 -2.9,0 -4.68,0 -1.78,0 -2.65,0 -4.83,0 v -0.84 c 2.18,0 2.73,-0.65 2.73,-3.23 v -16 c 0,-2.58 -0.55,-3.23 -2.73,-3.27 V 113 c 2.18,0 3.45,0 5.59,0 2.14,0 2.44,0 3.92,0 z"
     id="path62" /><path
     class="cls-4"
     d="m 1734.4182,113.73 c -2.17,0.14 -3.3,0.91 -4.06,2.76 l -0.51,1.3 -8.06,19.79 h -0.76 l -9.29,-19.9 c -1.42,-3.08 -2,-3.59 -4.07,-3.92 v -0.83 h 2.87 c 0.51,0 2.14,0 3.38,0 h 1.88 2.07 0.8 v 0.84 c -1.92,0 -3,0.65 -3,1.81 a 4,4 0 0 0 0.4,1.56 l 6.79,15.1 5.45,-15.1 a 7.22,7.22 0 0 0 0.4,-1.81 c 0,-1 -0.62,-1.45 -2.29,-1.53 v -0.83 h 0.54 c 0.22,0 0.73,0 1.49,0 1,0 1.6,0 1.85,0 0.25,0 0.91,0 1.85,0 h 1.6 0.65 z"
     id="path63" /><path
     class="cls-4"
     d="m 1753.0082,113.26 0.14,1.67 c 0.08,0.9 0.18,1.81 0.37,3.12 l 0.07,0.58 -1.16,0.11 a 5.49,5.49 0 0 0 -1.24,-2.94 c -1.12,-1.27 -2,-1.53 -5.48,-1.53 h -2.54 v 9.8 h 2.47 c 3.23,0 3.88,-0.43 4,-2.9 v -0.47 h 1.2 v 0.36 l -0.07,1.6 c 0,0.47 0,1.12 0,2 0,0.88 0,1.34 0,1.74 l 0.07,1.78 v 0.61 h -1.2 c 0,-2.75 -0.69,-3.3 -4.21,-3.3 h -2.36 v 7.34 c 0,2.47 0.59,3 3.38,3 5,0 6.57,-1.09 7.4,-5.08 l 1.17,0.22 c -0.18,1.45 -0.37,3.41 -0.48,5.44 v 0.73 c -1.56,0 -3.74,0 -6.46,0 -1.16,0 -1.85,0 -6.21,0 h -3 l -2.5,0.07 v -0.83 c 2.17,0 2.72,-0.66 2.72,-3.23 v -16.08 c 0,-2.62 -0.55,-3.23 -2.72,-3.27 v -0.87 h 0.76 1.85 2.69 3.19 3.7 3.31 1.12 z"
     id="path64" /><path
     class="cls-4"
     d="m 1759.0282,112.93 c 1,0 2,0 3.12,0 1.49,0 3,0 4.69,-0.11 1.16,0 2.1,-0.08 2.83,-0.08 4.39,0 7.26,2.51 7.26,6.25 a 6.1,6.1 0 0 1 -3.09,5.37 8.62,8.62 0 0 1 -1.89,0.72 5.14,5.14 0 0 1 1.28,1.71 l 2,3.7 c 2.14,4 2.5,4.5 3.44,5.19 a 3,3 0 0 0 1.24,0.55 4.79,4.79 0 0 0 1.12,0.11 v 0.83 a 13.79,13.79 0 0 1 -2.32,0.18 7.33,7.33 0 0 1 -5.44,-2.06 c -1.09,-1.13 -2.11,-2.87 -4.07,-6.94 -1,-2 -1.74,-2.57 -3.63,-2.57 h -0.22 v 6.53 c 0,3.19 0.4,3.66 3.16,3.81 v 1 h -3.3 -2.4 c -1.31,0 -2.18,0 -4.25,0 v -0.84 c 2.22,0 2.73,-0.65 2.73,-3.23 v -16.02 c 0,-2.61 -0.51,-3.23 -2.73,-3.27 v -0.87 z m 6.28,11.69 c 0.55,0 0.73,0 1.05,0 a 10.18,10.18 0 0 0 3.71,-0.5 4.21,4.21 0 0 0 2.36,-4.18 6.27,6.27 0 0 0 -2.36,-5.08 5.54,5.54 0 0 0 -3.74,-0.94 h -1 z"
     id="path65" /><path
     class="cls-4"
     d="m 1798.9582,119.25 h -1.16 a 7.47,7.47 0 0 0 -1.05,-3 6.08,6.08 0 0 0 -5.05,-2.65 4,4 0 0 0 -4.25,3.7 c 0,1.31 0.73,2.32 2.43,3.38 l 3.6,2.07 c 3.34,1.85 4.68,2.94 5.52,4.5 a 6.45,6.45 0 0 1 0.69,3.08 c 0,4.36 -3.24,7.26 -8,7.26 a 38.52,38.52 0 0 1 -7.44,-0.83 l -0.29,-6.1 1.2,-0.11 0.07,0.25 a 6.27,6.27 0 0 0 2.76,4.25 6.88,6.88 0 0 0 4,1.34 4.22,4.22 0 0 0 4.4,-4.13 3.4,3.4 0 0 0 -0.55,-1.86 c -0.76,-1.12 -1.52,-1.59 -5.92,-3.84 -4,-2 -5.88,-4.25 -5.88,-7 a 7.38,7.38 0 0 1 4.43,-6.5 11.18,11.18 0 0 1 4,-0.65 41.64,41.64 0 0 1 5.77,0.54 l 0.44,0.07 z"
     id="path66" /><path
     class="cls-4"
     d="m 1812.2082,113.83 c -2.22,0.07 -2.72,0.69 -2.72,3.27 v 16 c 0,2.58 0.5,3.2 2.72,3.23 v 0.84 c -2.14,0 -2.91,0 -4.68,0 -1.77,0 -2.65,0 -4.83,0 v -0.84 c 2.18,0 2.72,-0.65 2.72,-3.23 v -16 c 0,-2.58 -0.54,-3.23 -2.72,-3.27 V 113 c 2.18,0 3.45,0 5.59,0 2,0 2.43,0 3.92,0 z"
     id="path67" /><path
     class="cls-4"
     d="m 1837.2182,119.57 h -1.2 c -0.18,-2.18 -0.73,-3.37 -1.78,-4.06 -0.83,-0.58 -1.31,-0.69 -3.19,-0.69 h -2.87 v 18.25 c 0,2.65 0.51,3.27 2.72,3.31 v 0.8 h -3 -3.53 c -0.69,0 -1.67,0 -3,0 v -0.8 c 2.22,0 2.73,-0.69 2.73,-3.27 v -18.28 h -3.73 c -2.72,0 -3.73,1.16 -4.17,4.79 h -1.23 l 0.32,-6.71 h 0.55 14.73 3.38 2.43 0.66 z"
     id="path68" /><path
     class="cls-4"
     d="m 1863.6382,113.83 c -1.71,0.18 -2.39,0.76 -3.59,3 l -6.14,11.72 v 4.4 c 0,2.72 0.47,3.23 3.2,3.37 v 0.84 h -0.84 -8.6 -1.16 v -0.84 c 2.83,0 3.34,-0.54 3.34,-3.41 v -4.36 l -5,-10.23 c -1.88,-3.92 -2.35,-4.36 -4.64,-4.58 v -0.79 h 0.72 2 c 1.31,0 2.32,0 3,0 1.2,0 3.45,0 4.61,0 h 0.66 v 0.88 c -2.15,0.18 -2.69,0.51 -2.69,1.63 a 4,4 0 0 0 0.4,1.67 l 4.5,9.51 4.5,-9.36 a 3.89,3.89 0 0 0 0.47,-1.74 c 0,-1.06 -0.65,-1.56 -2.17,-1.67 v -0.84 h 0.5 1.31 3.85 1.12 0.62 z"
     id="path69" /><path
     class="cls-4"
     d="m 1884.7582,137.65 c -8.05,0 -14.11,-5.45 -14.11,-12.71 0,-7.26 5.62,-12.48 13.17,-12.48 7.8,0 13.39,5.3 13.39,12.7 0,7.4 -5.11,12.49 -12.45,12.49 z m -1.48,-24 c -4.76,0 -7.66,3.92 -7.66,10.31 0,7.22 3.81,12.48 9,12.48 4.64,0 7.62,-4 7.62,-10.3 v -0.44 c -0.18,-7.22 -3.87,-12.08 -8.96,-12.08 z"
     id="path70" /><path
     class="cls-4"
     d="m 1916.0882,113.66 c 0,0.29 0,0.61 0.07,1 0,0.8 0,1.34 0.07,1.67 l 0.14,1.5 0.07,0.83 -1.07,0.17 a 5.16,5.16 0 0 0 -1.16,-2.9 c -1.16,-1.35 -2.5,-1.75 -6.13,-1.75 h -2.71 v 9.91 h 2.69 c 3.63,0 4.32,-0.51 4.43,-3.34 h 1.08 c -0.07,1.64 -0.1,3 -0.1,4.58 0,0.8 0,1.63 0,2.72 v 0.65 h -1.09 c -0.18,-2.61 -1,-3.23 -4.57,-3.23 h -2.44 v 7.62 c 0,2.65 0.55,3.27 2.87,3.27 h 0.33 v 0.84 h -0.69 -9.07 -0.29 v -0.84 c 2.18,0 2.72,-0.65 2.72,-3.23 v -16.1 c 0,-2.61 -0.51,-3.27 -2.72,-3.3 v -0.84 c 0.4,0 0.69,0 0.87,0 0.18,0 1.09,0 2.68,0 l 2.8,0.07 h 7.5 c 1.7,0 2.17,0 3.66,0 z"
     id="path71" /><path
     class="cls-4"
     d="m 1663.8582,172.88 c -4.28,3 -8,4.23 -12.57,4.23 -9.14,0 -15.34,-5.74 -15.34,-14.29 0,-8.79 6.58,-14.79 16.22,-14.79 a 30.36,30.36 0 0 1 11,2.27 v 0.62 1.89 3.56 0.88 h -0.93 c -0.67,-4.65 -4.69,-7.88 -9.84,-7.88 -4.61,0 -7.8,2.06 -9.56,6.21 a 16.31,16.31 0 0 0 -1.17,6 c 0,8 4.74,14.08 10.89,14.08 3,0 5.49,-1.22 8.18,-3.94 a 15.72,15.72 0 0 0 2.68,-3.44 h 0.29 z"
     id="path72" /><path
     class="cls-4"
     d="m 1689.3682,170.66 c 1.68,3.85 2.52,4.69 5.2,5 v 0.92 h -1.09 -10.77 v -1 h 0.34 c 1.55,0 2.3,-0.5 2.3,-1.63 a 4.13,4.13 0 0 0 -0.33,-1.39 l -2.31,-5.73 h -8.92 l -1.93,5.32 a 6.44,6.44 0 0 0 -0.46,1.76 c 0,1.09 0.75,1.55 2.51,1.59 h 0.5 v 1 c -1.42,0 -1.88,0 -3.6,0 h -5.91 v -1 c 2.31,0 3.82,-1.34 5.07,-4.36 l 9.56,-23.31 z m -15.2,-5.07 h 7.79 l -4.15,-10.1 z"
     id="path73" /><path
     class="cls-4"
     d="m 1726.6582,149.75 h -0.29 c -2.47,0.13 -3.18,1 -3.18,3.77 v 23.68 h -1 l -21.75,-23.84 -0.07,17.47 c 0,3.64 0.71,4.52 3.73,4.65 v 1.05 h -8.84 v -1 c 2.85,-0.21 3.48,-1.09 3.48,-4.61 v -18.24 c 0,-2.05 -0.88,-2.89 -3.1,-3 h -0.27 v -1.05 h 0.63 1.55 1.64 1.59 2 l 18.59,20.65 v -15.63 c 0,-3.06 -0.54,-3.69 -3.48,-3.9 v -1.13 h 0.67 c 1.18,0.08 3,0.13 3.94,0.13 l 1.72,-0.05 h 2.47 z"
     id="path74" /><path
     class="cls-4"
     d="m 1754.6882,156.25 h -1.38 c -0.21,-2.52 -0.84,-3.9 -2.05,-4.7 -1,-0.67 -1.51,-0.79 -3.69,-0.79 h -3.31 v 21.07 c 0,3.06 0.59,3.77 3.14,3.82 v 0.92 h -3.43 -4.15 c -0.8,0 -1.93,0 -3.44,0 v -0.92 c 2.56,-0.05 3.15,-0.8 3.15,-3.78 v -21.04 h -4.28 c -3.14,0 -4.31,1.34 -4.82,5.53 h -1.42 l 0.38,-7.75 h 0.63 17 3.89 2.81 0.76 z"
     id="path75" /><path
     class="cls-4"
     d="m 1776.3082,148.96 0.17,1.92 c 0.09,1.05 0.21,2.1 0.42,3.61 l 0.09,0.67 -1.35,0.12 a 6.37,6.37 0 0 0 -1.42,-3.39 c -1.3,-1.47 -2.35,-1.76 -6.33,-1.76 h -2.93 v 11.31 h 2.85 c 3.73,0 4.48,-0.5 4.65,-3.35 v -0.55 h 1.38 v 0.42 l -0.08,1.85 c 0,0.54 0,1.3 0,2.26 0,0.96 0,1.55 0,2 l 0.08,2.05 v 0.71 h -1.38 c 0,-3.19 -0.79,-3.82 -4.86,-3.82 h -2.72 v 8.55 c 0,2.85 0.67,3.44 3.89,3.44 5.74,0 7.59,-1.26 8.55,-5.87 l 1.34,0.25 c -0.21,1.68 -0.42,3.94 -0.54,6.29 v 0.84 c -1.81,-0.05 -4.32,-0.05 -7.46,-0.05 -1.34,0 -2.14,0 -7.17,0.05 h -3.52 c -1.59,0 -1.84,0 -2.89,0.08 v -1 c 2.52,-0.05 3.15,-0.76 3.15,-3.73 v -18.5 c 0,-3 -0.63,-3.73 -3.15,-3.78 v -1 h 0.88 2.14 3.1 3.69 4.27 3.81 1.3 z"
     id="path76" /><path
     class="cls-4"
     d="m 1783.2682,148.58 c 1.17,0 2.35,0 3.6,0 1.72,0 3.48,0 5.41,-0.12 1.34,-0.05 2.43,-0.09 3.27,-0.09 5.07,0 8.38,2.89 8.38,7.21 a 7.05,7.05 0 0 1 -3.56,6.25 10.91,10.91 0 0 1 -2.18,0.84 5.89,5.89 0 0 1 1.46,2 l 2.26,4.27 c 2.48,4.61 2.9,5.2 4,6 a 3.45,3.45 0 0 0 1.42,0.63 5.61,5.61 0 0 0 1.3,0.13 v 1 a 16.32,16.32 0 0 1 -2.68,0.21 8.48,8.48 0 0 1 -6.29,-2.39 c -1.25,-1.3 -2.43,-3.31 -4.69,-8 -1.13,-2.35 -2,-3 -4.19,-3 h -0.25 v 7.55 c 0,3.68 0.46,4.23 3.64,4.39 v 1.18 h -3.81 -2.76 c -1.51,0 -2.52,0 -4.91,0 v -1 c 2.56,0 3.15,-0.75 3.15,-3.73 v -18.6 c 0,-3 -0.59,-3.73 -3.15,-3.77 v -1 z m 7.25,13.49 c 0.63,0 0.84,0 1.21,0 a 11.86,11.86 0 0 0 4.28,-0.58 c 1.72,-0.72 2.72,-2.48 2.72,-4.82 a 7.25,7.25 0 0 0 -2.72,-5.87 c -1.22,-0.84 -2.14,-1.09 -4.32,-1.09 h -1.17 z"
     id="path77" /><path
     class="cls-4"
     d="m 1810.0382,148.54 c 0.34,0 1.22,0 2.6,0 1.72,0 2.77,0 3.1,0 0.63,0 1.64,0 3,0 0.79,0 1.51,0 2.14,0 a 12.47,12.47 0 0 1 4.6,0.58 6.64,6.64 0 0 1 4.74,6.25 c 0,3.47 -2.81,6 -7.08,6.49 a 12.59,12.59 0 0 1 3.81,0.84 6.8,6.8 0 0 1 4.48,6.54 c 0,4.73 -3.56,7.29 -10,7.29 h -12.14 v -1 c 2.56,0 3.18,-0.75 3.18,-3.73 v -18.53 c 0,-3 -0.62,-3.73 -3.18,-3.77 v -1 a 5.91,5.91 0 0 0 0.75,0.04 z m 7.13,13 a 13.49,13.49 0 0 0 1.84,0.08 c 3,0 4.15,-0.42 5.28,-1.93 a 6.42,6.42 0 0 0 -3.6,-9.76 11.22,11.22 0 0 0 -2.18,-0.17 h -1.34 z m 0,10.13 c 0,3 0.58,3.69 3.1,3.69 3.89,0 5.86,-1.76 5.86,-5.32 0,-3.56 -2.22,-6.49 -5.19,-7 a 14.38,14.38 0 0 0 -2.43,-0.21 12.31,12.31 0 0 0 -1.34,0.09 z"
     id="path78" /><path
     class="cls-4"
     d="m 1860.6182,153.69 -0.09,9.85 c 0,4.61 -0.29,6.07 -1.42,8.12 -1.93,3.57 -5.57,5.45 -10.44,5.45 -5.94,0 -10.55,-3.1 -11.77,-8 a 18.89,18.89 0 0 1 -0.5,-5 v -10.28 c 0,-3.27 -0.34,-3.77 -2.94,-4.28 a 2.34,2.34 0 0 1 -0.46,-0.08 v -1 h 0.8 c 1.59,0.12 2.14,0.12 3.56,0.12 1.59,0 3.19,0 3.86,0 l 2.34,-0.08 h 1 v 1 c -2.69,0.29 -3.23,1 -3.23,4.1 v 11.44 c 0,3.48 0.29,4.95 1.22,6.58 a 8.35,8.35 0 0 0 7.54,4.11 8.49,8.49 0 0 0 8.71,-7.25 16.37,16.37 0 0 0 0.17,-2.72 v -1.05 l -0.25,-10.73 c -0.08,-3.56 -0.46,-4.1 -3.19,-4.4 h -0.5 v -1 h 0.46 l 1.8,0.08 c 0.55,0 1.14,0 1.76,0 0.62,0 1.26,0 2.64,0 h 1.68 0.63 v 1 c -2.55,0 -3.34,0.96 -3.38,4.02 z"
     id="path79" /><path
     class="cls-4"
     d="m 1865.9782,148.58 c 1.17,0 2.35,0 3.6,0 1.72,0 3.48,0 5.41,-0.12 1.34,-0.05 2.43,-0.09 3.27,-0.09 5.07,0 8.38,2.89 8.38,7.21 a 7,7 0 0 1 -3.57,6.2 10.52,10.52 0 0 1 -2.17,0.84 5.89,5.89 0 0 1 1.46,2 l 2.26,4.27 c 2.48,4.61 2.9,5.2 4,6 a 3.45,3.45 0 0 0 1.42,0.63 5.61,5.61 0 0 0 1.3,0.13 v 1 a 16.32,16.32 0 0 1 -2.68,0.21 8.48,8.48 0 0 1 -6.29,-2.43 c -1.25,-1.3 -2.43,-3.31 -4.69,-8 -1.13,-2.35 -2,-3 -4.19,-3 h -0.25 v 7.55 c 0,3.68 0.46,4.23 3.64,4.39 v 1.18 h -3.81 -2.77 c -1.5,0 -2.51,0 -4.9,0 v -1 c 2.56,0 3.15,-0.75 3.15,-3.73 v -18.51 c 0,-3 -0.59,-3.73 -3.15,-3.77 v -1 z m 7.25,13.49 c 0.63,0 0.84,0 1.21,0 a 11.86,11.86 0 0 0 4.28,-0.58 c 1.71,-0.72 2.72,-2.48 2.72,-4.82 a 7.25,7.25 0 0 0 -2.72,-5.87 c -1.22,-0.84 -2.14,-1.09 -4.32,-1.09 h -1.17 z"
     id="path80" /><path
     class="cls-4"
     d="m 1916.3682,149.58 c -2,0.21 -2.76,0.88 -4.14,3.52 l -7.08,13.54 v 5.07 c 0,3.14 0.54,3.73 3.68,3.89 v 1 h -1 -9.93 -1.34 v -1 c 3.27,0 3.85,-0.62 3.85,-3.94 v -5 l -5.69,-11.83 c -2.18,-4.52 -2.72,-5 -5.36,-5.28 v -0.92 h 0.84 2.3 c 1.51,0 2.68,0 3.48,0 1.38,0 4,0 5.32,0 h 0.75 v 1 c -2.47,0.21 -3.1,0.59 -3.1,1.89 a 4.7,4.7 0 0 0 0.46,1.93 l 5.2,11 5.2,-10.81 a 4.59,4.59 0 0 0 0.54,-2 c 0,-1.21 -0.75,-1.8 -2.51,-1.92 v -1 h 0.58 1.51 4.44 1.3 0.7 z"
     id="path81" /><g
     clip-path="url(#clipPath16)"
     id="g14"
     transform="matrix(5.5818,0,0,-5.5818,-55.174917,263.76567)"><g
       transform="translate(32.0156,32.6895)"
       id="g20"><path
         d="m 0,0 c -1.63,0.751 -7.257,4.863 -8.966,11.815 1.752,0.485 4.196,0.024 4.919,-1.668 -0.251,-0.668 -0.942,-1.372 -1.837,-0.975 0.433,0.319 0.646,0.972 0.256,1.429 -0.729,0.632 -1.902,0.076 -1.923,-0.776 -0.039,-1.842 3.479,-2.173 4.665,-1.085 1.012,-0.618 0.551,-2.544 -0.502,-2.763 0.817,1.112 -0.504,2.027 -1.433,1.607 -1.671,-0.757 0.063,-3.495 1.812,-3.646 2.257,-0.191 2.514,1.46 2.66,2.568 0.366,2.266 -2.704,8.098 -11,7.319 -0.571,-0.604 -2.245,-4.084 -2.513,-6.112 -0.62,-4.648 1.107,-10.6 5.717,-9.018 1.155,0.534 1.772,1.717 1.366,3.11 -0.448,1.536 -3.325,1.672 -3.133,-0.526 0.046,-0.543 0.184,-0.714 0.609,-1.086 -0.769,0.294 -1.437,0.68 -1.627,1.518 1.133,0.889 2.82,2.836 1.706,4.44 -0.989,1.431 -3.276,-0.2 -1.856,-1.547 0.216,-0.242 0.676,-0.247 1.034,-0.051 -0.289,-0.683 -0.866,-1.05 -1.657,-1.171 -0.533,1.981 -0.042,4.96 1.236,6.482 1.235,-3.968 4.903,-8.173 9.214,-10.825 0.109,-0.068 0.224,-0.12 0.335,-0.185 -0.447,-0.247 -0.888,-0.502 -1.325,-0.77 -6.732,-4.144 -12.468,-10.713 -14.395,-16.911 -1.995,2.376 -2.763,7.03 -1.929,10.126 1.237,-0.19 2.134,-0.764 2.588,-1.83 -0.56,0.304 -1.281,0.298 -1.617,-0.08 -2.216,-2.106 1.359,-4.652 2.905,-2.417 1.737,2.507 -0.896,5.549 -2.669,6.936 0.297,1.309 1.342,1.914 2.543,2.371 -0.665,-0.58 -0.879,-0.846 -0.954,-1.697 -0.298,-3.434 4.198,-3.22 4.896,-0.818 0.635,2.173 -0.328,4.02 -2.133,4.857 -7.203,2.469 -9.901,-6.828 -8.933,-14.093 0.419,-3.166 3.035,-8.599 3.927,-9.546 12.958,-1.213 17.758,7.893 17.185,11.435 -0.23,1.729 -0.632,4.311 -4.156,4.013 -2.734,-0.237 -5.441,-4.512 -2.832,-5.695 1.451,-0.659 3.518,0.771 2.24,2.511 1.646,-0.344 2.365,-3.351 0.785,-4.319 -1.855,1.7 -7.349,1.182 -7.289,-1.696 0.032,-1.332 1.865,-2.199 3.004,-1.21 0.612,0.712 0.276,1.732 -0.4,2.233 1.399,0.619 2.477,-0.483 2.868,-1.524 -1.127,-2.643 -4.945,-3.365 -7.683,-2.607 2.668,10.859 11.463,17.286 14.012,18.459 0.297,0.104 0.552,0.188 0.785,0.264 v 1.222 1.532 0.231 C 0.355,-0.121 0.191,-0.066 0,0"
         id="path22-6"
         style="fill:#656263;fill-opacity:1;fill-rule:nonzero;stroke:none" /></g><g
       transform="translate(46.0337,31.3105)"
       id="g24"><path
         d="m 0,0 c -1.805,-0.837 -2.77,-2.684 -2.134,-4.857 0.699,-2.402 5.194,-2.616 4.896,0.818 -0.075,0.851 -0.287,1.117 -0.953,1.697 1.202,-0.457 2.245,-1.062 2.543,-2.371 -1.772,-1.388 -4.406,-4.429 -2.667,-6.936 1.544,-2.235 5.118,0.311 2.9,2.417 -0.333,0.378 -1.056,0.384 -1.615,0.08 0.454,1.066 1.352,1.64 2.589,1.83 0.835,-3.096 0.067,-7.75 -1.93,-10.126 -1.926,6.198 -7.662,12.767 -14.394,16.911 -0.438,0.268 -0.881,0.523 -1.325,0.769 0.111,0.066 0.226,0.119 0.334,0.186 4.311,2.652 7.983,6.856 9.215,10.825 1.277,-1.522 1.77,-4.501 1.236,-6.482 -0.793,0.121 -1.367,0.488 -1.656,1.171 0.357,-0.196 0.82,-0.191 1.033,0.05 C -0.509,7.33 -2.796,8.961 -3.786,7.53 -4.898,5.926 -3.213,3.979 -2.078,3.09 -2.267,2.252 -2.936,1.866 -3.707,1.572 c 0.427,0.372 0.565,0.543 0.611,1.086 0.191,2.197 -2.687,2.062 -3.133,0.526 -0.407,-1.393 0.212,-2.576 1.366,-3.11 4.61,-1.582 6.336,4.37 5.717,9.018 -0.269,2.028 -1.941,5.508 -2.513,6.112 -8.297,0.779 -11.366,-5.053 -10.999,-7.319 0.145,-1.108 0.405,-2.759 2.661,-2.569 1.747,0.152 3.481,2.89 1.81,3.647 -0.929,0.42 -2.249,-0.495 -1.433,-1.608 -1.054,0.22 -1.515,2.146 -0.504,2.764 1.189,-1.088 4.705,-0.757 4.667,1.085 -0.02,0.852 -1.195,1.408 -1.923,0.775 -0.392,-0.457 -0.178,-1.109 0.256,-1.428 -0.896,-0.397 -1.585,0.307 -1.836,0.975 0.723,1.692 3.164,2.153 4.919,1.668 C -5.75,6.242 -11.38,2.13 -13.009,1.379 -13.199,1.313 -13.362,1.258 -13.513,1.21 V 0.979 -0.553 -1.775 c 0.234,-0.077 0.488,-0.161 0.785,-0.264 2.549,-1.173 11.343,-7.6 14.012,-18.459 -2.738,-0.758 -6.556,-0.036 -7.684,2.607 0.392,1.04 1.469,2.143 2.869,1.524 -0.675,-0.501 -1.012,-1.521 -0.401,-2.234 1.138,-0.988 2.972,-0.121 3.003,1.211 0.062,2.878 -5.431,3.396 -7.288,1.696 -1.579,0.967 -0.86,3.975 0.786,4.319 -1.277,-1.74 0.789,-3.17 2.24,-2.511 2.61,1.183 -0.098,5.458 -2.832,5.695 -3.525,0.297 -3.93,-2.284 -4.158,-4.013 -0.568,-3.542 4.229,-12.649 17.188,-11.435 0.891,0.947 3.506,6.38 3.926,9.546 C 9.899,-6.828 7.203,2.469 0,0"
         id="path26-5"
         style="fill:#9fa638;fill-opacity:1;fill-rule:nonzero;stroke:none" /></g><g
       transform="translate(64.5815,40.1328)"
       id="g28"><path
         d="M 0,0 V -7.322 H -0.887 V 0 H -3.171 V 0.766 H 2.297 V 0 Z"
         id="path30-9"
         style="fill:#656263;fill-opacity:1;fill-rule:nonzero;stroke:none" /></g><g
       transform="translate(69.2695,38.5332)"
       id="g32"><path
         d="M 0,0 C -0.86,0 -1.424,-0.672 -1.585,-1.666 H 1.276 C 1.276,-0.645 0.9,0 0,0 m 0.242,-5.871 c -1.76,0 -2.727,1.236 -2.727,3.291 0,1.963 0.98,3.266 2.539,3.266 1.424,0 2.055,-0.928 2.055,-2.258 v -0.766 h -3.748 c 0,-1.853 0.618,-2.754 2.109,-2.754 0.497,0 0.927,0.149 1.37,0.377 L 2.163,-5.4 C 1.599,-5.723 0.98,-5.871 0.242,-5.871"
         id="path34-5"
         style="fill:#656263;fill-opacity:1;fill-rule:nonzero;stroke:none" /></g><g
       transform="translate(80.8882,32.4883)"
       id="g36"><path
         d="M 0,0 -3.977,4.514 -0.604,8.41 H 0.47 L -2.875,4.58 0.658,0.577 Z m -4.891,8.41 h 0.887 V 0.322 h -0.887 z"
         id="path38-4"
         style="fill:#656263;fill-opacity:1;fill-rule:nonzero;stroke:none" /></g><g
       transform="translate(85.8311,35.5234)"
       id="g40"><path
         d="m 0,0 -1.128,-0.147 c -0.9,-0.121 -1.383,-0.39 -1.383,-1.021 0,-0.564 0.362,-0.94 0.94,-0.94 0.712,0 1.169,0.322 1.571,0.67 z M 0.834,4.636 H -3.049 V 5.375 H 0.834 Z M 0.163,-2.82 0.055,-2.068 H 0.041 c -0.483,-0.457 -0.98,-0.806 -1.733,-0.806 -1.075,0 -1.679,0.632 -1.679,1.611 0,1.103 0.886,1.64 2.149,1.775 L 0,0.646 v 0.618 c 0,0.953 -0.281,1.625 -1.383,1.625 -0.538,0 -0.94,-0.174 -1.343,-0.363 l -0.31,0.659 c 0.538,0.308 1.115,0.51 1.854,0.51 1.169,0 2.029,-0.713 2.029,-1.922 V -1.329 L 1.035,-2.66 Z"
         id="path42-9"
         style="fill:#656263;fill-opacity:1;fill-rule:nonzero;stroke:none" /></g><g
       transform="translate(92.6689,32.8105)"
       id="g44"><path
         d="m 0,0 v 4.111 c 0,1.007 -0.39,1.518 -1.331,1.518 -0.658,0 -1.087,-0.256 -1.531,-0.645 V 0 h -0.846 v 7.684 l -0.188,1.33 1.034,0.162 V 5.669 h 0.013 c 0.511,0.443 1.089,0.739 1.814,0.739 1.061,0 1.881,-0.685 1.881,-1.934 L 0.846,0 Z"
         id="path46-1"
         style="fill:#656263;fill-opacity:1;fill-rule:nonzero;stroke:none" /></g><g
       transform="translate(99.667,32.7031)"
       id="g48"><path
         d="m 0,0 -0.107,0.752 h -0.014 c -0.497,-0.484 -1.114,-0.793 -1.867,-0.793 -1.061,0 -1.881,0.699 -1.881,1.948 v 3.077 l -0.188,1.329 1.035,0.162 V 2.271 c 0,-1.008 0.376,-1.546 1.316,-1.546 0.659,0 1.102,0.269 1.545,0.658 V 4.984 L -0.35,6.313 0.686,6.475 V 1.491 L 0.874,0.16 Z"
         id="path50-7"
         style="fill:#656263;fill-opacity:1;fill-rule:nonzero;stroke:none" /></g><g
       transform="translate(102.6875,32.8105)"
       id="g52"><path
         d="M 0,0 V 4.877 L -0.187,6.206 0.847,6.367 V 0 Z m 0.431,7.188 c -0.363,0 -0.672,0.281 -0.672,0.671 0,0.389 0.309,0.671 0.672,0.671 0.362,0 0.658,-0.282 0.658,-0.671 0,-0.39 -0.296,-0.671 -0.658,-0.671"
         id="path54-5"
         style="fill:#656263;fill-opacity:1;fill-rule:nonzero;stroke:none" /></g><g
       transform="translate(110.4653,40.293)"
       id="g56"><path
         d="m 0,0 c -0.322,0 -0.685,-0.026 -0.886,-0.053 v -3.238 h 0.201 c 1.182,0 2.445,0.47 2.445,1.812 C 1.76,-0.457 1.061,0 0,0 m 2.365,-7.725 -2.391,3.762 c -0.215,-0.027 -0.416,-0.04 -0.632,-0.04 h -0.228 v -3.479 h -0.887 v 8.019 c 0.443,0.068 1.236,0.149 2.028,0.149 1.452,0 2.392,-0.766 2.392,-1.962 0,-1.329 -0.78,-2.122 -1.814,-2.486 l 2.312,-3.547 z"
         id="path58-5"
         style="fill:#656263;fill-opacity:1;fill-rule:nonzero;stroke:none" /></g><g
       transform="translate(117.2231,38.4668)"
       id="g60"><path
         d="m 0,0 c -1.143,0 -1.733,-0.807 -1.733,-2.486 0,-1.653 0.565,-2.566 1.733,-2.566 1.141,0 1.72,0.806 1.72,2.486 C 1.72,-0.914 1.168,0 0,0 m 0,-5.805 c -1.975,0 -2.633,1.411 -2.633,3.279 0,1.813 0.847,3.278 2.633,3.278 1.975,0 2.62,-1.41 2.62,-3.278 C 2.62,-4.34 1.787,-5.805 0,-5.805"
         id="path62-4"
         style="fill:#656263;fill-opacity:1;fill-rule:nonzero;stroke:none" /></g><g
       transform="translate(122.542,37.6738)"
       id="g64"><path
         d="m 0,0 v -4.863 h -0.847 v 4.877 l -0.188,1.329 0.872,0.161 0.109,-0.846 h 0.013 c 0.444,0.483 1.021,0.873 1.8,0.873 v -0.9 C 1.047,0.631 0.496,0.43 0,0"
         id="path66-1"
         style="fill:#656263;fill-opacity:1;fill-rule:nonzero;stroke:none" /></g><g
       transform="translate(127.7529,38.4668)"
       id="g68"><path
         d="m 0,0 c -1.142,0 -1.732,-0.807 -1.732,-2.486 0,-1.653 0.564,-2.566 1.732,-2.566 1.142,0 1.72,0.806 1.72,2.486 C 1.72,-0.914 1.169,0 0,0 m 0,-5.805 c -1.975,0 -2.633,1.411 -2.633,3.279 0,1.813 0.847,3.278 2.633,3.278 1.975,0 2.62,-1.41 2.62,-3.278 C 2.62,-4.34 1.787,-5.805 0,-5.805"
         id="path70-8"
         style="fill:#656263;fill-opacity:1;fill-rule:nonzero;stroke:none" /></g><g
       transform="translate(136.8462,40.293)"
       id="g72"><path
         d="m 0,0 c -0.322,0 -0.685,-0.026 -0.886,-0.053 v -3.238 h 0.201 c 1.182,0 2.445,0.47 2.445,1.812 C 1.76,-0.457 1.061,0 0,0 m 2.365,-7.725 -2.391,3.762 c -0.215,-0.027 -0.416,-0.04 -0.632,-0.04 h -0.228 v -3.479 h -0.887 v 8.019 c 0.443,0.068 1.236,0.149 2.028,0.149 1.452,0 2.392,-0.766 2.392,-1.962 0,-1.329 -0.78,-2.122 -1.814,-2.486 l 2.312,-3.547 z"
         id="path74-8"
         style="fill:#656263;fill-opacity:1;fill-rule:nonzero;stroke:none" /></g><g
       transform="translate(143.4429,38.5332)"
       id="g76"><path
         d="m 0,0 c -0.859,0 -1.424,-0.672 -1.584,-1.666 h 2.86 C 1.276,-0.645 0.9,0 0,0 m 0.242,-5.871 c -1.76,0 -2.727,1.236 -2.727,3.291 0,1.963 0.98,3.266 2.539,3.266 1.424,0 2.056,-0.928 2.056,-2.258 v -0.766 h -3.748 c 0,-1.853 0.617,-2.754 2.108,-2.754 0.497,0 0.928,0.149 1.37,0.377 L 2.164,-5.4 C 1.6,-5.723 0.98,-5.871 0.242,-5.871"
         id="path78-3"
         style="fill:#656263;fill-opacity:1;fill-rule:nonzero;stroke:none" /></g><g
       transform="translate(149.501,38.4668)"
       id="g80"><path
         d="m 0,0 c -1.142,0 -1.732,-0.807 -1.732,-2.486 0,-1.653 0.564,-2.566 1.732,-2.566 1.142,0 1.72,0.806 1.72,2.486 C 1.72,-0.914 1.169,0 0,0 m 0,-5.805 c -1.975,0 -2.633,1.411 -2.633,3.279 0,1.813 0.847,3.278 2.633,3.278 1.975,0 2.62,-1.41 2.62,-3.278 C 2.62,-4.34 1.787,-5.805 0,-5.805"
         id="path82"
         style="fill:#656263;fill-opacity:1;fill-rule:nonzero;stroke:none" /></g><g
       transform="translate(157.7759,35.3633)"
       id="g84"><path
         d="m 0,0 c -0.752,0 -1.357,0.563 -1.357,1.369 0,0.807 0.605,1.358 1.357,1.358 0.752,0 1.37,-0.551 1.37,-1.358 C 1.37,0.563 0.752,0 0,0"
         id="path86"
         style="fill:#9fa638;fill-opacity:1;fill-rule:nonzero;stroke:none" /></g><g
       transform="translate(168.5898,32.7031)"
       id="g88"><path
         d="M 0,0 -3.922,6.932 H -3.936 V 0.107 h -0.82 v 8.088 h 1.115 L 0.175,1.491 h 0.013 v 6.704 h 0.82 V 0.174 Z"
         id="path90"
         style="fill:#231f20;fill-opacity:1;fill-rule:nonzero;stroke:none" /></g><g
       transform="translate(173.9634,38.5332)"
       id="g92"><path
         d="M 0,0 C -0.86,0 -1.424,-0.672 -1.585,-1.666 H 1.276 C 1.276,-0.645 0.9,0 0,0 m 0.242,-5.871 c -1.76,0 -2.727,1.236 -2.727,3.291 0,1.963 0.98,3.266 2.539,3.266 1.424,0 2.055,-0.928 2.055,-2.258 v -0.766 h -3.748 c 0,-1.853 0.618,-2.754 2.109,-2.754 0.497,0 0.927,0.149 1.37,0.377 L 2.163,-5.4 C 1.599,-5.723 0.98,-5.871 0.242,-5.871"
         id="path94"
         style="fill:#231f20;fill-opacity:1;fill-rule:nonzero;stroke:none" /></g><g
       transform="translate(183.4331,32.8105)"
       id="g96"><path
         d="m 0,0 h -0.792 l -1.64,4.998 H -2.445 L -4.098,0 h -0.806 l -1.572,6.22 0.847,0.215 1.196,-5.146 h 0.014 l 1.571,4.971 h 0.888 l 1.571,-4.971 h 0.014 L 0.847,6.26 h 0.86 z"
         id="path98"
         style="fill:#231f20;fill-opacity:1;fill-rule:nonzero;stroke:none" /></g><g
       transform="translate(188.8735,32.8105)"
       id="g100"><path
         d="M 0,0 V 0.738 L 4.675,7.322 V 7.335 H 0.335 V 8.088 H 5.736 V 7.361 L 1.154,0.766 V 0.752 H 5.978 V 0 Z"
         id="path102"
         style="fill:#231f20;fill-opacity:1;fill-rule:nonzero;stroke:none" /></g><g
       transform="translate(198.1816,38.5332)"
       id="g104"><path
         d="M 0,0 C -0.859,0 -1.424,-0.672 -1.584,-1.666 H 1.277 C 1.277,-0.645 0.9,0 0,0 m 0.242,-5.871 c -1.76,0 -2.726,1.236 -2.726,3.291 0,1.963 0.98,3.266 2.539,3.266 1.424,0 2.054,-0.928 2.054,-2.258 v -0.766 h -3.748 c 0,-1.853 0.619,-2.754 2.11,-2.754 0.498,0 0.927,0.149 1.369,0.377 L 2.164,-5.4 C 1.6,-5.723 0.98,-5.871 0.242,-5.871"
         id="path106"
         style="fill:#231f20;fill-opacity:1;fill-rule:nonzero;stroke:none" /></g><g
       transform="translate(204.9766,35.5234)"
       id="g108"><path
         d="m 0,0 -1.127,-0.147 c -0.9,-0.121 -1.383,-0.39 -1.383,-1.021 0,-0.564 0.362,-0.94 0.94,-0.94 0.713,0 1.17,0.322 1.57,0.67 z M 0.162,-2.82 0.055,-2.068 H 0.041 c -0.48,-0.457 -0.98,-0.806 -1.73,-0.806 -1.077,0 -1.68,0.632 -1.68,1.611 0,1.103 0.885,1.64 2.148,1.775 L 0,0.646 v 0.618 c 0,0.953 -0.281,1.625 -1.383,1.625 -0.537,0 -0.939,-0.174 -1.342,-0.363 l -0.31,0.659 c 0.539,0.308 1.115,0.51 1.855,0.51 1.168,0 2.028,-0.713 2.028,-1.922 V -1.329 L 1.035,-2.66 Z"
         id="path110"
         style="fill:#231f20;fill-opacity:1;fill-rule:nonzero;stroke:none" /></g><g
       transform="translate(208.1074,32.8105)"
       id="g112"><path
         d="m 0,0 v 7.684 l -0.188,1.33 1.034,0.162 V 0 Z"
         id="path114"
         style="fill:#231f20;fill-opacity:1;fill-rule:nonzero;stroke:none" /></g><g
       transform="translate(214.1523,35.5234)"
       id="g116"><path
         d="m 0,0 -1.127,-0.147 c -0.902,-0.121 -1.385,-0.39 -1.385,-1.021 0,-0.564 0.364,-0.94 0.94,-0.94 0.711,0 1.17,0.322 1.572,0.67 z M 0.162,-2.82 0.055,-2.068 H 0.041 c -0.484,-0.457 -0.98,-0.806 -1.734,-0.806 -1.073,0 -1.68,0.632 -1.68,1.611 0,1.103 0.889,1.64 2.15,1.775 L 0,0.646 v 0.618 c 0,0.953 -0.281,1.625 -1.383,1.625 -0.537,0 -0.939,-0.174 -1.344,-0.363 l -0.308,0.659 c 0.535,0.308 1.115,0.51 1.851,0.51 1.17,0 2.032,-0.713 2.032,-1.922 V -1.329 L 1.035,-2.66 Z"
         id="path118"
         style="fill:#231f20;fill-opacity:1;fill-rule:nonzero;stroke:none" /></g><g
       transform="translate(221.0176,32.8105)"
       id="g120"><path
         d="m 0,0 v 4.098 c 0,1.007 -0.377,1.545 -1.316,1.545 -0.661,0 -1.104,-0.27 -1.547,-0.659 V 0 h -0.846 v 4.877 l -0.189,1.329 0.873,0.161 0.109,-0.752 h 0.012 c 0.5,0.484 1.117,0.793 1.869,0.793 1.06,0 1.881,-0.699 1.881,-1.948 V 0 Z"
         id="path122"
         style="fill:#231f20;fill-opacity:1;fill-rule:nonzero;stroke:none" /></g><g
       transform="translate(227.6387,33.9521)"
       id="g124"><path
         d="m 0,0 v 4.272 c -0.23,0.094 -0.564,0.202 -1.074,0.202 -1.358,0 -1.975,-1.168 -1.975,-2.418 0,-1.6 0.414,-2.593 1.719,-2.593 0.564,0 0.953,0.227 1.33,0.537 M 0.201,-1.249 0.094,-0.618 H 0.08 c -0.484,-0.403 -1.035,-0.672 -1.734,-0.672 -1.317,0 -2.297,1.075 -2.297,2.97 0,2.135 1.062,3.519 2.984,3.519 0.455,0 0.791,-0.067 0.967,-0.108 v 1.451 l -0.189,1.33 1.035,0.162 V 0.202 l 0.189,-1.317 z"
         id="path126"
         style="fill:#231f20;fill-opacity:1;fill-rule:nonzero;stroke:none" /></g><path
       d="m 233.641,40.898 h 0.887 V 32.81 h -0.887 z"
       id="path128"
       style="fill:#231f20;fill-opacity:1;fill-rule:nonzero;stroke:none" /><g
       transform="translate(240.5742,32.8105)"
       id="g130"><path
         d="m 0,0 v 4.098 c 0,1.007 -0.377,1.545 -1.316,1.545 -0.659,0 -1.102,-0.27 -1.547,-0.659 V 0 h -0.846 v 4.877 l -0.189,1.329 0.873,0.161 0.111,-0.752 h 0.012 c 0.498,0.484 1.115,0.793 1.867,0.793 1.06,0 1.881,-0.699 1.881,-1.948 V 0 Z"
         id="path132"
         style="fill:#231f20;fill-opacity:1;fill-rule:nonzero;stroke:none" /></g><g
       transform="translate(245.0313,32.6758)"
       id="g134"><path
         d="m 0,0 c -0.604,0 -1.234,0.094 -1.73,0.322 l 0.281,0.78 c 0.443,-0.202 0.939,-0.35 1.408,-0.35 0.781,0 1.316,0.31 1.316,0.994 0,0.512 -0.265,0.699 -0.711,0.914 l -1.222,0.578 c -0.348,0.16 -1.141,0.524 -1.141,1.625 0,1.169 1.022,1.68 2.094,1.68 0.674,0 1.143,-0.107 1.654,-0.322 L 1.641,5.441 C 1.209,5.629 0.795,5.764 0.283,5.764 c -0.754,0 -1.236,-0.243 -1.236,-0.847 0,-0.524 0.443,-0.739 0.697,-0.86 L 1.01,3.453 C 1.842,3.05 2.164,2.539 2.164,1.895 2.164,0.766 1.291,0 0,0"
         id="path136"
         style="fill:#231f20;fill-opacity:1;fill-rule:nonzero;stroke:none" /></g><g
       transform="translate(250.5664,32.6895)"
       id="g138"><path
         d="m 0,0 c -0.861,0 -1.479,0.551 -1.479,1.559 v 4.11 h -0.912 v 0.577 l 0.912,0.162 v 1.035 l 0.848,0.12 V 6.381 h 1.76 V 5.669 h -1.76 V 1.895 c 0,-0.847 0.215,-1.129 0.858,-1.129 0.324,0 0.607,0.147 0.781,0.255 L 1.316,0.363 C 0.98,0.174 0.631,0 0,0"
         id="path140"
         style="fill:#231f20;fill-opacity:1;fill-rule:nonzero;stroke:none" /></g><g
       transform="translate(253.4668,32.8105)"
       id="g142"><path
         d="M 0,0 V 4.877 L -0.188,6.206 0.848,6.367 V 0 Z m 0.43,7.188 c -0.364,0 -0.67,0.281 -0.67,0.671 0,0.389 0.306,0.671 0.67,0.671 0.363,0 0.658,-0.282 0.658,-0.671 0,-0.39 -0.295,-0.671 -0.658,-0.671"
         id="path144"
         style="fill:#231f20;fill-opacity:1;fill-rule:nonzero;stroke:none" /></g><g
       transform="translate(258.1816,32.6895)"
       id="g146"><path
         d="m 0,0 c -0.857,0 -1.479,0.551 -1.479,1.559 v 4.11 h -0.912 v 0.577 l 0.912,0.162 v 1.035 l 0.848,0.12 V 6.381 h 1.76 V 5.669 h -1.76 V 1.895 c 0,-0.847 0.215,-1.129 0.861,-1.129 0.323,0 0.604,0.147 0.78,0.255 L 1.316,0.363 C 0.98,0.174 0.633,0 0,0"
         id="path148"
         style="fill:#231f20;fill-opacity:1;fill-rule:nonzero;stroke:none" /></g><g
       transform="translate(264.9258,32.7031)"
       id="g150"><path
         d="m 0,0 -0.107,0.752 h -0.012 c -0.5,-0.484 -1.117,-0.793 -1.869,-0.793 -1.061,0 -1.881,0.699 -1.881,1.948 v 3.077 l -0.19,1.329 1.036,0.162 V 2.271 c 0,-1.008 0.377,-1.546 1.316,-1.546 0.66,0 1.103,0.269 1.547,0.658 V 4.984 L -0.35,6.313 0.686,6.475 V 1.491 L 0.875,0.16 Z"
         id="path152"
         style="fill:#231f20;fill-opacity:1;fill-rule:nonzero;stroke:none" /></g><g
       transform="translate(269.4805,32.6895)"
       id="g154"><path
         d="m 0,0 c -0.861,0 -1.479,0.551 -1.479,1.559 v 4.11 h -0.914 v 0.577 l 0.914,0.162 v 1.035 l 0.846,0.12 V 6.381 H 1.129 V 5.669 H -0.633 V 1.895 c 0,-0.847 0.215,-1.129 0.86,-1.129 0.324,0 0.605,0.147 0.779,0.255 L 1.316,0.363 C 0.98,0.174 0.629,0 0,0"
         id="path156"
         style="fill:#231f20;fill-opacity:1;fill-rule:nonzero;stroke:none" /></g><g
       transform="translate(274.207,38.5332)"
       id="g158"><path
         d="M 0,0 C -0.861,0 -1.424,-0.672 -1.586,-1.666 H 1.277 C 1.277,-0.645 0.9,0 0,0 m 0.242,-5.871 c -1.762,0 -2.726,1.236 -2.726,3.291 0,1.963 0.98,3.266 2.537,3.266 1.424,0 2.056,-0.928 2.056,-2.258 v -0.766 h -3.748 c 0,-1.853 0.619,-2.754 2.11,-2.754 0.496,0 0.927,0.149 1.369,0.377 L 2.164,-5.4 C 1.598,-5.723 0.98,-5.871 0.242,-5.871"
         id="path160"
         style="fill:#231f20;fill-opacity:1;fill-rule:nonzero;stroke:none" /></g><g
       transform="translate(283.0879,38.4668)"
       id="g162"><path
         d="m 0,0 c -1.143,0 -1.734,-0.807 -1.734,-2.486 0,-1.653 0.564,-2.566 1.734,-2.566 1.139,0 1.719,0.806 1.719,2.486 C 1.719,-0.914 1.168,0 0,0 m 0,-5.805 c -1.977,0 -2.635,1.411 -2.635,3.279 0,1.813 0.848,3.278 2.635,3.278 1.975,0 2.617,-1.41 2.617,-3.278 C 2.617,-4.34 1.785,-5.805 0,-5.805"
         id="path164"
         style="fill:#231f20;fill-opacity:1;fill-rule:nonzero;stroke:none" /></g><g
       transform="translate(290.1777,41.127)"
       id="g166"><path
         d="m 0,0 c -0.201,0.066 -0.375,0.106 -0.658,0.106 -0.633,0 -1.102,-0.429 -1.102,-1.262 V -2.057 H 0.014 V -2.769 H -1.76 v -5.547 h -0.847 v 5.547 H -3.52 v 0.578 l 0.913,0.162 v 0.724 c 0,1.344 0.861,2.137 2.07,2.137 0.297,0 0.512,-0.053 0.726,-0.107 z"
         id="path168"
         style="fill:#231f20;fill-opacity:1;fill-rule:nonzero;stroke:none" /></g><g
       transform="translate(62.6733,13.2725)"
       id="g170"><path
         d="M 0,0 V 12.496 H 2.221 V 1.868 H 6.809 V 0 Z"
         id="path172"
         style="fill:#231f20;fill-opacity:1;fill-rule:nonzero;stroke:none" /></g><g
       transform="translate(75.709,17.2988)"
       id="g174"><path
         d="m 0,0 -1.079,-0.125 c -1.225,-0.145 -1.827,-0.519 -1.827,-1.328 0,-0.705 0.436,-1.225 1.163,-1.225 0.809,0 1.308,0.353 1.743,0.705 z m 0.333,-4.214 -0.167,1.121 h -0.02 c -0.623,-0.601 -1.391,-1.183 -2.554,-1.183 -1.577,0 -2.552,0.975 -2.552,2.553 0,1.805 1.37,2.657 3.362,2.844 L 0,1.287 V 2.075 C 0,3.26 -0.435,4.09 -1.867,4.09 c -0.79,0 -1.35,-0.23 -1.931,-0.541 l -0.768,1.474 c 0.914,0.582 1.827,0.956 3.176,0.956 2.158,0 3.445,-1.225 3.445,-3.218 V -1.64 l 0.333,-2.263 z"
         id="path176"
         style="fill:#231f20;fill-opacity:1;fill-rule:nonzero;stroke:none" /></g><g
       transform="translate(86.4634,13.2725)"
       id="g178"><path
         d="m 0,0 v 6.269 c 0,1.265 -0.499,1.888 -1.62,1.888 -0.83,0 -1.453,-0.374 -1.95,-0.831 V 0 h -2.097 v 7.368 l -0.311,2.283 2.055,0.291 0.145,-1.099 h 0.02 c 0.644,0.642 1.62,1.162 2.865,1.162 1.681,0 2.989,-1.018 2.989,-3.113 L 2.096,0 Z"
         id="path180"
         style="fill:#231f20;fill-opacity:1;fill-rule:nonzero;stroke:none" /></g><g
       transform="translate(94.6836,21.7617)"
       id="g182"><path
         d="m 0,0 c -0.914,0 -1.62,-0.643 -1.62,-1.806 0,-1.182 0.664,-1.785 1.62,-1.785 0.934,0 1.619,0.643 1.619,1.785 C 1.619,-0.623 0.975,0 0,0 m 1.869,-8.406 h -2.554 c -0.291,0 -0.602,0 -0.872,0.04 -0.229,-0.207 -0.623,-0.684 -0.623,-1.391 0,-1.016 0.644,-1.535 1.952,-1.535 2.159,0 3.383,1.204 3.383,2.18 0,0.56 -0.478,0.706 -1.286,0.706 m 1.286,8.282 C 3.404,-0.603 3.549,-1.163 3.549,-1.785 3.549,-3.674 2.2,-5.127 0,-5.127 c -0.374,0 -0.727,0.063 -1.059,0.124 -0.27,-0.186 -0.519,-0.518 -0.519,-0.934 0,-0.54 0.415,-0.684 0.975,-0.684 h 2.907 c 1.723,0 2.678,-0.603 2.678,-2.076 0,-1.972 -1.869,-4.235 -5.523,-4.235 -2.178,0 -3.424,0.955 -3.424,2.677 0,1.288 0.809,2.014 1.266,2.305 -0.435,0.312 -0.726,0.726 -0.726,1.453 0,1.225 1.017,1.827 1.266,1.951 -0.913,0.582 -1.412,1.577 -1.412,2.761 0,1.889 1.371,3.32 3.571,3.32 0.788,0 1.474,-0.165 2.013,-0.476 l 3.051,0.457 v -1.64 z"
         id="path184"
         style="fill:#231f20;fill-opacity:1;fill-rule:nonzero;stroke:none" /></g><g
       transform="translate(107.7607,13.085)"
       id="g186"><path
         d="m 0,0 -0.166,1.101 h -0.022 c -0.642,-0.622 -1.618,-1.142 -2.864,-1.142 -1.66,0 -2.989,1.016 -2.989,3.112 v 4.485 l -0.311,2.283 2.408,0.291 V 3.674 c 0,-1.245 0.497,-1.867 1.64,-1.867 0.809,0 1.432,0.352 1.93,0.809 v 4.94 L -0.686,9.839 1.723,10.13 V 2.574 L 2.055,0.311 Z"
         id="path188"
         style="fill:#231f20;fill-opacity:1;fill-rule:nonzero;stroke:none" /></g><g
       transform="translate(116.832,17.2988)"
       id="g190"><path
         d="m 0,0 -1.079,-0.125 c -1.225,-0.145 -1.827,-0.519 -1.827,-1.328 0,-0.705 0.436,-1.225 1.162,-1.225 0.81,0 1.309,0.353 1.744,0.705 z m 0.333,-4.214 -0.167,1.121 h -0.02 c -0.623,-0.601 -1.391,-1.183 -2.554,-1.183 -1.577,0 -2.553,0.975 -2.553,2.553 0,1.805 1.37,2.657 3.363,2.844 L 0,1.287 V 2.075 C 0,3.26 -0.435,4.09 -1.868,4.09 c -0.789,0 -1.349,-0.23 -1.93,-0.541 l -0.768,1.474 c 0.913,0.582 1.827,0.956 3.175,0.956 2.159,0 3.446,-1.225 3.446,-3.218 V -1.64 l 0.332,-2.263 z"
         id="path192"
         style="fill:#231f20;fill-opacity:1;fill-rule:nonzero;stroke:none" /></g><g
       transform="translate(125.0532,21.7617)"
       id="g194"><path
         d="m 0,0 c -0.914,0 -1.62,-0.643 -1.62,-1.806 0,-1.182 0.665,-1.785 1.62,-1.785 0.934,0 1.62,0.643 1.62,1.785 C 1.62,-0.623 0.976,0 0,0 m 1.869,-8.406 h -2.554 c -0.291,0 -0.602,0 -0.871,0.04 -0.229,-0.207 -0.624,-0.684 -0.624,-1.391 0,-1.016 0.644,-1.535 1.952,-1.535 2.159,0 3.383,1.204 3.383,2.18 0,0.56 -0.478,0.706 -1.286,0.706 m 1.286,8.282 C 3.405,-0.603 3.549,-1.163 3.549,-1.785 3.549,-3.674 2.2,-5.127 0,-5.127 c -0.373,0 -0.726,0.063 -1.059,0.124 -0.27,-0.186 -0.519,-0.518 -0.519,-0.934 0,-0.54 0.415,-0.684 0.976,-0.684 h 2.906 c 1.723,0 2.677,-0.603 2.677,-2.076 0,-1.972 -1.867,-4.235 -5.521,-4.235 -2.179,0 -3.425,0.955 -3.425,2.677 0,1.288 0.81,2.014 1.266,2.305 -0.435,0.312 -0.726,0.726 -0.726,1.453 0,1.225 1.017,1.827 1.267,1.951 -0.914,0.582 -1.412,1.577 -1.412,2.761 0,1.889 1.37,3.32 3.57,3.32 0.788,0 1.474,-0.165 2.013,-0.476 l 3.051,0.457 v -1.64 z"
         id="path196"
         style="fill:#231f20;fill-opacity:1;fill-rule:nonzero;stroke:none" /></g><g
       transform="translate(135.2671,21.5762)"
       id="g198"><path
         d="M 0,0 C -1.142,0 -1.827,-0.895 -1.994,-2.057 H 1.64 C 1.64,-0.832 1.141,0 0,0 m 0.415,-8.554 c -3.052,0 -4.525,1.973 -4.525,5.231 0,2.989 1.661,5.003 4.193,5.003 2.511,0 3.446,-1.701 3.446,-3.944 v -1.163 h -5.585 c 0.042,-2.2 0.935,-3.258 2.803,-3.258 0.851,0 1.412,0.208 2.158,0.561 L 3.611,-7.765 C 2.594,-8.284 1.66,-8.554 0.415,-8.554"
         id="path200"
         style="fill:#231f20;fill-opacity:1;fill-rule:nonzero;stroke:none" /></g><g
       transform="translate(148.6987,18.918)"
       id="g202"><path
         d="m 0,0 h -0.997 v -3.861 h 1.391 c 1.495,0 2.594,0.602 2.594,1.889 C 2.988,-0.665 2.096,0 0,0 m -0.083,5.335 c -0.292,0 -0.645,-0.021 -0.914,-0.062 V 1.516 c 1.743,0.021 3.093,0.517 3.093,2.076 0,1.224 -0.809,1.743 -2.179,1.743 M -0.312,-5.646 H -3.135 V 6.746 c 0.54,0.063 2.014,0.208 3.321,0.208 2.698,0 4.131,-0.934 4.131,-2.864 0,-1.537 -0.976,-2.43 -2.221,-2.928 V 1.142 C 3.881,0.955 5.21,-0.063 5.21,-1.785 c 0,-2.678 -2.2,-3.861 -5.522,-3.861"
         id="path204"
         style="fill:#231f20;fill-opacity:1;fill-rule:nonzero;stroke:none" /></g><g
       transform="translate(158.123,20.2871)"
       id="g206"><path
         d="m 0,0 v -7.015 h -2.097 v 7.369 l -0.311,2.283 2.055,0.291 0.165,-1.35 h 0.021 C 0.435,2.326 1.307,2.969 2.697,2.969 V 0.977 C 1.536,0.977 0.726,0.729 0,0"
         id="path208"
         style="fill:#231f20;fill-opacity:1;fill-rule:nonzero;stroke:none" /></g><g
       transform="translate(166.6948,17.2988)"
       id="g210"><path
         d="m 0,0 -1.079,-0.125 c -1.225,-0.145 -1.827,-0.519 -1.827,-1.328 0,-0.705 0.436,-1.225 1.162,-1.225 0.81,0 1.309,0.353 1.744,0.705 z m 0.333,-4.214 -0.167,1.121 h -0.02 c -0.623,-0.601 -1.391,-1.183 -2.554,-1.183 -1.577,0 -2.553,0.975 -2.553,2.553 0,1.805 1.37,2.657 3.363,2.844 L 0,1.287 V 2.075 C 0,3.26 -0.435,4.09 -1.868,4.09 c -0.789,0 -1.349,-0.23 -1.93,-0.541 l -0.768,1.474 c 0.913,0.582 1.827,0.956 3.175,0.956 2.159,0 3.446,-1.225 3.446,-3.218 V -1.64 l 0.332,-2.263 z"
         id="path212"
         style="fill:#231f20;fill-opacity:1;fill-rule:nonzero;stroke:none" /></g><g
       transform="translate(172.8818,24.3145)"
       id="g214"><path
         d="m 0,0 c -0.747,0 -1.349,0.603 -1.349,1.35 0,0.768 0.602,1.349 1.349,1.349 0.748,0 1.35,-0.581 1.35,-1.349 C 1.35,0.603 0.748,0 0,0 m -1.059,-11.042 v 7.368 l -0.312,2.283 2.408,0.291 v -9.942 z"
         id="path216"
         style="fill:#231f20;fill-opacity:1;fill-rule:nonzero;stroke:none" /></g><g
       transform="translate(182.6172,13.2725)"
       id="g218"><path
         d="m 0,0 v 6.269 c 0,1.265 -0.498,1.888 -1.619,1.888 -0.83,0 -1.454,-0.374 -1.951,-0.831 V 0 h -2.097 v 7.368 l -0.311,2.283 2.055,0.291 0.145,-1.099 h 0.021 c 0.644,0.642 1.619,1.162 2.864,1.162 1.682,0 2.99,-1.018 2.99,-3.113 L 2.097,0 Z"
         id="path220"
         style="fill:#231f20;fill-opacity:1;fill-rule:nonzero;stroke:none" /></g><g
       transform="translate(195.4473,24.4609)"
       id="g222"><path
         d="m 0,0 c -0.852,0 -1.434,-0.52 -1.434,-1.641 0,-0.809 0.332,-1.453 1.164,-2.221 0.954,0.768 1.514,1.37 1.514,2.512 C 1.244,-0.561 0.809,0 0,0 m -0.604,-5.834 c -0.621,-0.518 -1.181,-1.182 -1.181,-2.033 0,-1.163 0.808,-1.932 2.033,-1.932 1.164,0 1.994,0.541 2.574,1.267 z m 7.411,-5.708 -2.676,2.055 c -0.936,-1.184 -2.305,-1.951 -4.194,-1.951 -2.138,0 -3.611,1.141 -3.611,3.155 0,1.556 0.787,2.449 1.93,3.384 -0.871,0.872 -1.432,1.805 -1.432,3.133 0,2.077 1.432,3.322 3.364,3.322 1.597,0 2.779,-1.079 2.779,-2.72 0,-1.659 -0.787,-2.469 -2.115,-3.506 l 2.925,-2.284 c 0.311,0.933 0.416,1.785 0.477,3.092 H 7.865 V -5.46 H 5.686 C 5.645,-6.29 5.416,-7.142 5.105,-7.91 l 2.803,-2.157 z"
         id="path224"
         style="fill:#231f20;fill-opacity:1;fill-rule:nonzero;stroke:none" /></g><g
       transform="translate(213.2988,18.918)"
       id="g226"><path
         d="m 0,0 h -0.996 v -3.861 h 1.389 c 1.496,0 2.595,0.602 2.595,1.889 C 2.988,-0.665 2.096,0 0,0 m -0.084,5.335 c -0.291,0 -0.643,-0.021 -0.912,-0.062 V 1.516 c 1.742,0.021 3.092,0.517 3.092,2.076 0,1.224 -0.809,1.743 -2.18,1.743 M -0.311,-5.646 H -3.135 V 6.746 c 0.539,0.063 2.014,0.208 3.321,0.208 2.701,0 4.13,-0.934 4.13,-2.864 0,-1.537 -0.974,-2.43 -2.22,-2.928 v -0.02 c 1.787,-0.187 3.115,-1.205 3.115,-2.927 0,-2.678 -2.201,-3.861 -5.522,-3.861"
         id="path228"
         style="fill:#231f20;fill-opacity:1;fill-rule:nonzero;stroke:none" /></g><g
       transform="translate(224.0938,21.5762)"
       id="g230"><path
         d="M 0,0 C -1.143,0 -1.828,-0.895 -1.992,-2.057 H 1.641 C 1.641,-0.832 1.143,0 0,0 m 0.414,-8.554 c -3.051,0 -4.523,1.973 -4.523,5.231 0,2.989 1.66,5.003 4.193,5.003 2.512,0 3.445,-1.701 3.445,-3.944 v -1.163 h -5.586 c 0.043,-2.2 0.936,-3.258 2.803,-3.258 0.852,0 1.412,0.208 2.158,0.561 L 3.611,-7.765 C 2.596,-8.284 1.66,-8.554 0.414,-8.554"
         id="path232"
         style="fill:#231f20;fill-opacity:1;fill-rule:nonzero;stroke:none" /></g><g
       transform="translate(235.5723,13.2725)"
       id="g234"><path
         d="m 0,0 v 6.269 c 0,1.224 -0.498,1.847 -1.66,1.847 -0.83,0 -1.412,-0.333 -1.91,-0.79 V 0 h -2.096 v 11.623 l -0.311,2.263 2.407,0.312 V 8.987 h 0.021 c 0.645,0.561 1.535,1.018 2.656,1.018 1.704,0 2.989,-1.018 2.989,-3.113 L 2.096,0 Z"
         id="path236"
         style="fill:#231f20;fill-opacity:1;fill-rule:nonzero;stroke:none" /></g><g
       transform="translate(244.9766,17.2988)"
       id="g238"><path
         d="m 0,0 -1.078,-0.125 c -1.227,-0.145 -1.826,-0.519 -1.826,-1.328 0,-0.705 0.435,-1.225 1.16,-1.225 0.812,0 1.31,0.353 1.744,0.705 z M 0.334,-4.214 0.166,-3.093 H 0.145 c -0.622,-0.601 -1.389,-1.183 -2.551,-1.183 -1.58,0 -2.555,0.975 -2.555,2.553 0,1.805 1.371,2.657 3.363,2.844 L 0,1.287 V 2.075 C 0,3.26 -0.434,4.09 -1.867,4.09 c -0.789,0 -1.35,-0.23 -1.93,-0.541 l -0.767,1.474 c 0.912,0.582 1.826,0.956 3.173,0.956 2.159,0 3.448,-1.225 3.448,-3.218 V -1.64 l 0.33,-2.263 z"
         id="path240"
         style="fill:#231f20;fill-opacity:1;fill-rule:nonzero;stroke:none" /></g><g
       transform="translate(253.9043,13.334)"
       id="g242"><path
         d="m 0,0 -2.076,-0.165 -3.197,9.651 2.095,0.498 2.223,-7.41 h 0.019 l 2.43,7.119 H 3.57 Z"
         id="path244"
         style="fill:#231f20;fill-opacity:1;fill-rule:nonzero;stroke:none" /></g><g
       transform="translate(260.4004,24.3145)"
       id="g246"><path
         d="m 0,0 c -0.746,0 -1.348,0.603 -1.348,1.35 0,0.768 0.602,1.349 1.348,1.349 0.75,0 1.35,-0.581 1.35,-1.349 C 1.35,0.603 0.75,0 0,0 m -1.059,-11.042 v 7.368 l -0.31,2.283 2.41,0.291 v -9.942 z"
         id="path248"
         style="fill:#231f20;fill-opacity:1;fill-rule:nonzero;stroke:none" /></g><g
       transform="translate(268.1016,21.4297)"
       id="g250"><path
         d="m 0,0 c -1.391,0 -2.137,-0.996 -2.137,-3.217 0,-2.201 0.725,-3.321 2.137,-3.321 1.391,0 2.119,1.037 2.119,3.237 C 2.119,-1.101 1.412,0 0,0 m 0,-8.386 c -3.094,0 -4.275,2.2 -4.275,5.127 0,2.885 1.433,5.085 4.275,5.085 3.094,0 4.277,-2.158 4.277,-5.085 0,-2.886 -1.433,-5.127 -4.277,-5.127"
         id="path252"
         style="fill:#231f20;fill-opacity:1;fill-rule:nonzero;stroke:none" /></g><g
       transform="translate(280.7852,13.085)"
       id="g254"><path
         d="m 0,0 -0.164,1.101 h -0.022 c -0.644,-0.622 -1.619,-1.142 -2.865,-1.142 -1.66,0 -2.988,1.016 -2.988,3.112 v 4.485 l -0.313,2.283 2.411,0.291 V 3.674 c 0,-1.245 0.496,-1.867 1.638,-1.867 0.811,0 1.432,0.352 1.932,0.809 v 4.94 L -0.684,9.839 1.725,10.13 V 2.574 L 2.057,0.311 Z"
         id="path256"
         style="fill:#231f20;fill-opacity:1;fill-rule:nonzero;stroke:none" /></g><g
       transform="translate(287.6387,20.2871)"
       id="g258"><path
         d="m 0,0 v -7.015 h -2.098 v 7.369 l -0.312,2.283 2.056,0.291 0.165,-1.35 h 0.021 C 0.434,2.326 1.307,2.969 2.697,2.969 V 0.977 C 1.535,0.977 0.725,0.729 0,0"
         id="path260"
         style="fill:#231f20;fill-opacity:1;fill-rule:nonzero;stroke:none" /></g></g></svg>
