<?xml version="1.0" encoding="UTF-8" standalone="no"?>
<!-- Created with Inkscape (http://www.inkscape.org/) -->

<svg
   width="320pt"
   height="320pt"
   id="svg3430"
   version="1.1"
   inkscape:version="1.1 (ce6663b3b7, 2021-05-25)"
   sodipodi:docname="koru.svg"
   inkscape:export-filename="/home/robert/Working/NZILBB/koru-128.png"
   inkscape:export-xdpi="28.800001"
   inkscape:export-ydpi="28.800001"
   xmlns:inkscape="http://www.inkscape.org/namespaces/inkscape"
   xmlns:sodipodi="http://sodipodi.sourceforge.net/DTD/sodipodi-0.dtd"
   xmlns="http://www.w3.org/2000/svg"
   xmlns:svg="http://www.w3.org/2000/svg"
   xmlns:rdf="http://www.w3.org/1999/02/22-rdf-syntax-ns#"
   xmlns:cc="http://creativecommons.org/ns#"
   xmlns:dc="http://purl.org/dc/elements/1.1/">
  <defs
     id="defs3432" />
  <sodipodi:namedview
     pagecolor="#ffffff"
     bordercolor="#666666"
     borderopacity="1.0"
     inkscape:pageopacity="0.0"
     inkscape:pageshadow="2"
     inkscape:zoom="0.8"
     inkscape:cx="159.375"
     inkscape:cy="209.375"
     inkscape:document-units="pt"
     inkscape:current-layer="layer1"
     id="namedview3434"
     showgrid="false"
     inkscape:window-width="1848"
     inkscape:window-height="1016"
     inkscape:window-x="72"
     inkscape:window-y="27"
     inkscape:window-maximized="1"
     inkscape:pagecheckerboard="0" />
  <metadata
     id="metadata3436">
    <rdf:RDF>
      <cc:Work
         rdf:about="">
        <dc:format>image/svg+xml</dc:format>
        <dc:type
           rdf:resource="http://purl.org/dc/dcmitype/StillImage" />
      </cc:Work>
    </rdf:RDF>
  </metadata>
  <g
     inkscape:label="Layer 1"
     inkscape:groupmode="layer"
     id="layer1">
    <g
       transform="matrix(9.0364192,0,0,-9.0364192,-80.117557,456.57644)"
       id="g12">
      <g
         transform="translate(32.0156,32.6895)"
         id="g20">
        <path
           inkscape:connector-curvature="0"
           id="path22"
           style="fill:#656263;fill-opacity:1;fill-rule:nonzero;stroke:none"
           d="m 0,0 c -1.63,0.751 -7.257,4.863 -8.966,11.815 1.752,0.485 4.196,0.024 4.919,-1.668 -0.251,-0.668 -0.942,-1.372 -1.837,-0.975 0.433,0.319 0.646,0.972 0.256,1.429 -0.729,0.632 -1.902,0.076 -1.923,-0.776 -0.039,-1.842 3.479,-2.173 4.665,-1.085 1.012,-0.618 0.551,-2.544 -0.502,-2.763 0.817,1.112 -0.504,2.027 -1.433,1.607 -1.671,-0.757 0.063,-3.495 1.812,-3.646 2.257,-0.191 2.514,1.46 2.66,2.568 0.366,2.266 -2.704,8.098 -11,7.319 -0.571,-0.604 -2.245,-4.084 -2.513,-6.112 -0.62,-4.648 1.107,-10.6 5.717,-9.018 1.155,0.534 1.772,1.717 1.366,3.11 -0.448,1.536 -3.325,1.672 -3.133,-0.526 0.046,-0.543 0.184,-0.714 0.609,-1.086 -0.769,0.294 -1.437,0.68 -1.627,1.518 1.133,0.889 2.82,2.836 1.706,4.44 -0.989,1.431 -3.276,-0.2 -1.856,-1.547 0.216,-0.242 0.676,-0.247 1.034,-0.051 -0.289,-0.683 -0.866,-1.05 -1.657,-1.171 -0.533,1.981 -0.042,4.96 1.236,6.482 1.235,-3.968 4.903,-8.173 9.214,-10.825 0.109,-0.068 0.224,-0.12 0.335,-0.185 -0.447,-0.247 -0.888,-0.502 -1.325,-0.77 -6.732,-4.144 -12.468,-10.713 -14.395,-16.911 -1.995,2.376 -2.763,7.03 -1.929,10.126 1.237,-0.19 2.134,-0.764 2.588,-1.83 -0.56,0.304 -1.281,0.298 -1.617,-0.08 -2.216,-2.106 1.359,-4.652 2.905,-2.417 1.737,2.507 -0.896,5.549 -2.669,6.936 0.297,1.309 1.342,1.914 2.543,2.371 -0.665,-0.58 -0.879,-0.846 -0.954,-1.697 -0.298,-3.434 4.198,-3.22 4.896,-0.818 0.635,2.173 -0.328,4.02 -2.133,4.857 -7.203,2.469 -9.901,-6.828 -8.933,-14.093 0.419,-3.166 3.035,-8.599 3.927,-9.546 12.958,-1.213 17.758,7.893 17.185,11.435 -0.23,1.729 -0.632,4.311 -4.156,4.013 -2.734,-0.237 -5.441,-4.512 -2.832,-5.695 1.451,-0.659 3.518,0.771 2.24,2.511 1.646,-0.344 2.365,-3.351 0.785,-4.319 -1.855,1.7 -7.349,1.182 -7.289,-1.696 0.032,-1.332 1.865,-2.199 3.004,-1.21 0.612,0.712 0.276,1.732 -0.4,2.233 1.399,0.619 2.477,-0.483 2.868,-1.524 -1.127,-2.643 -4.945,-3.365 -7.683,-2.607 2.668,10.859 11.463,17.286 14.012,18.459 0.297,0.104 0.552,0.188 0.785,0.264 v 1.222 1.532 0.231 C 0.355,-0.121 0.191,-0.066 0,0" />
      </g>
      <g
         transform="translate(46.0337,31.3105)"
         id="g24">
        <path
           inkscape:connector-curvature="0"
           id="path26"
           style="fill:#9fa638;fill-opacity:1;fill-rule:nonzero;stroke:none"
           d="m 0,0 c -1.805,-0.837 -2.77,-2.684 -2.134,-4.857 0.699,-2.402 5.194,-2.616 4.896,0.818 -0.075,0.851 -0.287,1.117 -0.953,1.697 1.202,-0.457 2.245,-1.062 2.543,-2.371 -1.772,-1.388 -4.406,-4.429 -2.667,-6.936 1.544,-2.235 5.118,0.311 2.9,2.417 -0.333,0.378 -1.056,0.384 -1.615,0.08 0.454,1.066 1.352,1.64 2.589,1.83 0.835,-3.096 0.067,-7.75 -1.93,-10.126 -1.926,6.198 -7.662,12.767 -14.394,16.911 -0.438,0.268 -0.881,0.523 -1.325,0.769 0.111,0.066 0.226,0.119 0.334,0.186 4.311,2.652 7.983,6.856 9.215,10.825 1.277,-1.522 1.77,-4.501 1.236,-6.482 -0.793,0.121 -1.367,0.488 -1.656,1.171 0.357,-0.196 0.82,-0.191 1.033,0.05 C -0.509,7.33 -2.796,8.961 -3.786,7.53 -4.898,5.926 -3.213,3.979 -2.078,3.09 -2.267,2.252 -2.936,1.866 -3.707,1.572 c 0.427,0.372 0.565,0.543 0.611,1.086 0.191,2.197 -2.687,2.062 -3.133,0.526 -0.407,-1.393 0.212,-2.576 1.366,-3.11 4.61,-1.582 6.336,4.37 5.717,9.018 -0.269,2.028 -1.941,5.508 -2.513,6.112 -8.297,0.779 -11.366,-5.053 -10.999,-7.319 0.145,-1.108 0.405,-2.759 2.661,-2.569 1.747,0.152 3.481,2.89 1.81,3.647 -0.929,0.42 -2.249,-0.495 -1.433,-1.608 -1.054,0.22 -1.515,2.146 -0.504,2.764 1.189,-1.088 4.705,-0.757 4.667,1.085 -0.02,0.852 -1.195,1.408 -1.923,0.775 -0.392,-0.457 -0.178,-1.109 0.256,-1.428 -0.896,-0.397 -1.585,0.307 -1.836,0.975 0.723,1.692 3.164,2.153 4.919,1.668 C -5.75,6.242 -11.38,2.13 -13.009,1.379 -13.199,1.313 -13.362,1.258 -13.513,1.21 V 0.979 -0.553 -1.775 c 0.234,-0.077 0.488,-0.161 0.785,-0.264 2.549,-1.173 11.343,-7.6 14.012,-18.459 -2.738,-0.758 -6.556,-0.036 -7.684,2.607 0.392,1.04 1.469,2.143 2.869,1.524 -0.675,-0.501 -1.012,-1.521 -0.401,-2.234 1.138,-0.988 2.972,-0.121 3.003,1.211 0.062,2.878 -5.431,3.396 -7.288,1.696 -1.579,0.967 -0.86,3.975 0.786,4.319 -1.277,-1.74 0.789,-3.17 2.24,-2.511 2.61,1.183 -0.098,5.458 -2.832,5.695 -3.525,0.297 -3.93,-2.284 -4.158,-4.013 -0.568,-3.542 4.229,-12.649 17.188,-11.435 0.891,0.947 3.506,6.38 3.926,9.546 C 9.899,-6.828 7.203,2.469 0,0" />
      </g>
    </g>
  </g>
</svg>
